<svg width="22" height="22" viewBox="0 0 22 22" fill="none" xmlns="http://www.w3.org/2000/svg">
<path d="M4.69323 6.89334L3.22656 19.7267H18.6266L17.1599 6.89334H4.69323Z" stroke="#1F1F1F" stroke-miterlimit="10" stroke-linecap="round"/>
<path d="M14.227 8.72668C14.227 8.27165 14.227 6.24838 14.227 5.79335C14.227 3.97065 12.7497 2.49335 10.927 2.49335C9.10425 2.49335 7.62695 3.97065 7.62695 5.79335C7.62695 6.24838 7.62695 8.27165 7.62695 8.72668" stroke="#1F1F1F" stroke-miterlimit="10" stroke-linecap="round"/>
<path d="M14.2255 9.46001C14.6305 9.46001 14.9589 9.13169 14.9589 8.72668C14.9589 8.32167 14.6305 7.99335 14.2255 7.99335C13.8205 7.99335 13.4922 8.32167 13.4922 8.72668C13.4922 9.13169 13.8205 9.46001 14.2255 9.46001Z" fill="#1F1F1F"/>
<path d="M7.62591 9.46001C8.03092 9.46001 8.35924 9.13169 8.35924 8.72668C8.35924 8.32167 8.03092 7.99335 7.62591 7.99335C7.2209 7.99335 6.89258 8.32167 6.89258 8.72668C6.89258 9.13169 7.2209 9.46001 7.62591 9.46001Z" fill="#1F1F1F"/>
</svg>
