<svg width="17" height="17" viewBox="0 0 17 17" fill="none" xmlns="http://www.w3.org/2000/svg">
<path d="M11.4937 1.78775C12.48 1.78775 13.4258 2.17953 14.1232 2.87689C14.8205 3.57426 15.2123 4.52009 15.2123 5.50632V11.9293C15.2123 12.9155 14.8205 13.8613 14.1232 14.5587C13.4258 15.2561 12.48 15.6479 11.4937 15.6479H5.07077C4.08455 15.6479 3.13871 15.2561 2.44135 14.5587C1.74398 13.8613 1.35221 12.9155 1.35221 11.9293V5.50632C1.35221 4.52009 1.74398 3.57426 2.44135 2.87689C3.13871 2.17953 4.08455 1.78775 5.07077 1.78775H11.4937ZM11.4937 0.435547H5.07077C3.72715 0.43956 2.43971 0.975089 1.48963 1.92517C0.539542 2.87526 0.00401282 4.1627 0 5.50632V11.9293C0.00401282 13.2729 0.539542 14.5603 1.48963 15.5104C2.43971 16.4605 3.72715 16.996 5.07077 17.0001H11.4937C12.8374 16.996 14.1248 16.4605 15.0749 15.5104C16.025 14.5603 16.5605 13.2729 16.5645 11.9293V5.50632C16.5605 4.1627 16.025 2.87526 15.0749 1.92517C14.1248 0.975089 12.8374 0.43956 11.4937 0.435547Z" fill="#D80000"/>
<path d="M12.7009 3.30896C12.5094 3.30896 12.3221 3.36576 12.1629 3.47218C12.0036 3.57861 11.8795 3.72987 11.8061 3.90684C11.7328 4.08381 11.7137 4.27855 11.751 4.46643C11.7884 4.6543 11.8806 4.82687 12.0161 4.96232C12.1515 5.09777 12.3241 5.19001 12.512 5.22738C12.6999 5.26475 12.8946 5.24558 13.0716 5.17227C13.2485 5.09897 13.3998 4.97483 13.5062 4.81556C13.6127 4.65628 13.6695 4.46903 13.6695 4.27748C13.6695 4.15029 13.6444 4.02435 13.5957 3.90684C13.5471 3.78934 13.4757 3.68257 13.3858 3.59263C13.2958 3.5027 13.1891 3.43136 13.0716 3.38268C12.9541 3.33401 12.8281 3.30896 12.7009 3.30896Z" fill="#D80000"/>
<path d="M8.32822 5.75444C8.91941 5.7541 9.49742 5.92912 9.98911 6.25736C10.4808 6.5856 10.8641 7.0523 11.0905 7.59843C11.3169 8.14455 11.3762 8.74555 11.2609 9.3254C11.1457 9.90524 10.861 10.4379 10.443 10.8559C10.025 11.2739 9.49235 11.5586 8.9125 11.6738C8.33266 11.7891 7.73165 11.7298 7.18553 11.5034C6.63941 11.277 6.17271 10.8937 5.84447 10.402C5.51623 9.91031 5.34121 9.33231 5.34154 8.74112C5.34288 7.94941 5.65798 7.19052 6.2178 6.6307C6.77762 6.07087 7.53652 5.75578 8.32822 5.75444ZM8.32822 4.40223C7.47003 4.4039 6.63159 4.65993 5.91886 5.13797C5.20613 5.61601 4.6511 6.2946 4.32392 7.08798C3.99674 7.88136 3.91208 8.75393 4.08066 9.5954C4.24923 10.4369 4.66346 11.2095 5.27101 11.8156C5.87855 12.4218 6.65214 12.8342 7.49401 13.0008C8.33588 13.1674 9.20825 13.0807 10.0009 12.7517C10.7935 12.4226 11.4708 11.866 11.9471 11.1522C12.4235 10.4384 12.6776 9.59932 12.6773 8.74112C12.677 8.17054 12.5643 7.6056 12.3456 7.07862C12.1268 6.55164 11.8063 6.07296 11.4023 5.66997C10.9984 5.26698 10.519 4.94758 9.9915 4.73005C9.46401 4.51252 8.8988 4.40112 8.32822 4.40223Z" fill="#D80000"/>
</svg>
