<svg width="177" height="39" viewBox="0 0 177 39" fill="none" xmlns="http://www.w3.org/2000/svg">
<path fill-rule="evenodd" clip-rule="evenodd" d="M133.753 21.8117L140.096 11.1321H149.199L144.505 37.8682H136.01L138.734 22.4931L129.702 38.8354L125.652 22.6007L122.929 37.8682H116.801L121.495 11.1321H131.566L133.753 21.8117ZM116.227 19.8048C116.227 21.1194 116.084 22.6723 115.797 24.4642C115.367 26.8774 114.733 28.9917 113.898 30.8081C113.037 32.6 111.974 34.0812 110.707 35.2516C109.418 36.4465 107.864 37.3425 106.049 37.9395C104.233 38.5134 102.166 38.8 99.8479 38.8C96.1687 38.8 93.4336 38.0115 91.6417 36.4345C89.8496 34.8812 88.9535 32.4563 88.9535 29.1587C88.9535 27.9163 89.1084 26.3518 89.4193 24.4642C90.3031 19.7336 92.0116 16.1974 94.5445 13.8557C97.1007 11.5619 100.565 10.3911 104.938 10.3436C108.904 10.3436 111.783 11.1321 113.575 12.709C115.343 14.2619 116.227 16.6268 116.227 19.8048ZM161.062 11.1321L164.037 18.6229L169.663 11.1321H176.652L165.829 24.8581L163.499 37.8682H155.148L157.443 24.8581L151.708 11.1321H161.062ZM12.9022 38.8354L8.8528 22.6007L6.1283 37.8682H0L4.6948 11.1321H14.766L16.9522 21.8117L23.2955 11.1321H32.3989L27.7041 37.8682H19.2098L21.934 22.4931L12.9022 38.8354ZM30.0693 37.8682L44.7991 11.1321H52.3976L57.8448 37.8682H48.885L48.0967 33.9617H38.3481L36.162 37.8682H30.0693ZM47.0929 29.2665L45.516 21.0594L40.9288 29.2665H47.0929ZM69.3845 21.7763L66.5176 37.8682H60.3179L65.0127 11.1321H74.9396L79.9938 26.6867L82.7175 11.1321H88.8814L84.1509 37.8682H74.9043L69.3845 21.7763ZM97.5185 24.4642C97.2086 26.376 97.0534 27.8925 97.0534 29.0162C97.0534 32.1935 98.2719 33.8063 100.709 33.8547C102.907 33.8547 104.46 33.0178 105.367 31.3454C106.275 29.6727 106.98 27.4151 107.482 24.572C107.841 22.6365 108.02 21.0711 108.02 19.877C108.02 16.89 106.741 15.3606 104.185 15.2893C102.059 15.2893 100.517 16.1378 99.562 17.8339C98.63 19.5067 97.9491 21.7167 97.5185 24.4642Z" fill="#272727"/>
<path d="M110.206 6.15028C111.736 4.38208 112.417 2.33938 112.25 0.0219827C110.147 -0.145417 108.235 0.643278 106.516 2.38718C104.795 4.15528 104.245 6.17419 104.866 8.44439C106.969 8.51549 108.749 7.75118 110.206 6.15028Z" fill="#D80000"/>
</svg>
