<svg width="114" height="25" viewBox="0 0 114 25" fill="none" xmlns="http://www.w3.org/2000/svg">
<path fill-rule="evenodd" clip-rule="evenodd" d="M86.102 14.0414L90.1854 7.16652H96.0452L93.0233 24.3776H87.5549L89.3083 14.48L83.4946 25.0002L80.8874 14.5493L79.1341 24.3776H75.1891L78.2112 7.16652H84.6943L86.102 14.0414ZM74.8201 12.7495C74.8201 13.5957 74.7276 14.5954 74.5428 15.7489C74.2661 17.3024 73.8584 18.6634 73.3205 19.8327C72.7665 20.9863 72.0821 21.9398 71.2668 22.6932C70.4365 23.4624 69.4366 24.0392 68.2678 24.4235C67.0987 24.7929 65.7683 24.9774 64.276 24.9774C61.9076 24.9774 60.1469 24.4698 58.9934 23.4547C57.8397 22.4547 57.2629 20.8937 57.2629 18.771C57.2629 17.9712 57.3626 16.964 57.5627 15.7489C58.1316 12.7036 59.2315 10.4273 60.862 8.91981C62.5075 7.4432 64.7376 6.68951 67.5526 6.65894C70.1057 6.65894 71.9591 7.16652 73.1126 8.18164C74.2509 9.1813 74.8201 10.7037 74.8201 12.7495ZM103.682 7.16652L105.597 11.9886L109.219 7.16652H113.718L106.75 16.0025L105.251 24.3776H99.875L101.352 16.0025L97.6605 7.16652H103.682ZM8.30565 25.0002L5.69889 14.5493L3.94503 24.3776H0L3.02223 7.16652H9.50545L10.9128 14.0414L14.9962 7.16652H20.8564L17.8342 24.3776H12.3661L14.1198 14.48L8.30565 25.0002ZM19.3568 24.3776L28.8389 7.16652H33.7304L37.237 24.3776H31.4692L30.9617 21.8628H24.6862L23.2789 24.3776H19.3568ZM30.3155 18.8403L29.3004 13.5571L26.3475 18.8403H30.3155ZM44.6655 14.0186L42.82 24.3776H38.829L41.8512 7.16652H48.2416L51.4951 17.1796L53.2485 7.16652H57.2164L54.1712 24.3776H48.2188L44.6655 14.0186ZM62.7765 15.7489C62.577 16.9796 62.4771 17.9558 62.4771 18.6792C62.4771 20.7246 63.2615 21.7628 64.83 21.7939C66.2449 21.7939 67.2449 21.2552 67.8291 20.1786C68.4136 19.1018 68.8673 17.6485 69.1904 15.8183C69.4212 14.5724 69.5365 13.5646 69.5365 12.796C69.5365 10.8731 68.7136 9.88857 67.0681 9.84267C65.6994 9.84267 64.707 10.3889 64.092 11.4807C63.492 12.5576 63.0537 13.9802 62.7765 15.7489Z" fill="#F2F2F2"/>
<path d="M70.9433 3.95918C71.9278 2.82092 72.3666 1.50595 72.2587 0.0141512C70.9052 -0.0936108 69.6745 0.414103 68.5675 1.53672C67.4597 2.67492 67.1061 3.97457 67.5056 5.43598C68.8595 5.48175 70.0052 4.98974 70.9433 3.95918Z" fill="#D80000"/>
</svg>
