<svg width="33" height="26" viewBox="0 0 33 26" fill="none" xmlns="http://www.w3.org/2000/svg">
<path d="M32.1342 25.2183V25.2848H32.1954C32.209 25.2848 32.2206 25.2816 32.229 25.2764C32.2367 25.2712 32.2412 25.2622 32.2412 25.2512C32.2412 25.2402 32.2367 25.2318 32.229 25.2267C32.2206 25.2209 32.209 25.2183 32.1954 25.2183H32.1342ZM32.1961 25.1718C32.2277 25.1718 32.2522 25.1789 32.2696 25.1931C32.287 25.2073 32.2954 25.2267 32.2954 25.2512C32.2954 25.2719 32.2889 25.2887 32.2747 25.3022C32.2612 25.3151 32.2419 25.3235 32.2161 25.3268L32.2973 25.4204H32.2341L32.1587 25.3274H32.1342V25.4204H32.0813V25.1718H32.1961ZM32.18 25.5063C32.209 25.5063 32.2361 25.5005 32.2606 25.4895C32.2857 25.4785 32.3076 25.4637 32.3263 25.4449C32.345 25.4262 32.3599 25.4043 32.3708 25.3784C32.3811 25.3532 32.3869 25.3261 32.3869 25.2971C32.3869 25.268 32.3811 25.2409 32.3708 25.2157C32.3599 25.1905 32.345 25.1679 32.3263 25.1492C32.3076 25.1305 32.2857 25.1156 32.2606 25.1046C32.2361 25.0943 32.209 25.0891 32.18 25.0891C32.151 25.0891 32.1232 25.0943 32.0981 25.1046C32.0723 25.1156 32.0497 25.1305 32.031 25.1492C32.0123 25.1679 31.9975 25.1905 31.9872 25.2157C31.9762 25.2409 31.9711 25.268 31.9711 25.2971C31.9711 25.3261 31.9762 25.3532 31.9872 25.3784C31.9975 25.4043 32.0123 25.4262 32.031 25.4449C32.0497 25.4637 32.0723 25.4785 32.0981 25.4895C32.1232 25.5005 32.151 25.5063 32.18 25.5063ZM32.18 25.0291C32.218 25.0291 32.2528 25.0362 32.2864 25.0504C32.3192 25.0639 32.3476 25.0833 32.3727 25.1078C32.3973 25.1317 32.4166 25.1602 32.4308 25.1931C32.445 25.2254 32.4521 25.2603 32.4521 25.2971C32.4521 25.3339 32.445 25.3687 32.4308 25.401C32.4166 25.4333 32.3973 25.4617 32.3727 25.4863C32.3476 25.5102 32.3192 25.5295 32.2864 25.5438C32.2528 25.558 32.218 25.5651 32.18 25.5651C32.1413 25.5651 32.1058 25.558 32.0723 25.5438C32.0388 25.5295 32.0098 25.5102 31.9853 25.4863C31.9608 25.4617 31.9414 25.4333 31.9272 25.401C31.913 25.3687 31.9059 25.3339 31.9059 25.2971C31.9059 25.2603 31.913 25.2254 31.9272 25.1931C31.9414 25.1602 31.9608 25.1317 31.9853 25.1078C32.0098 25.0833 32.0388 25.0639 32.0723 25.0504C32.1058 25.0362 32.1413 25.0291 32.18 25.0291ZM7.05973 24.0714C7.05973 23.5974 7.36985 23.208 7.87663 23.208C8.36084 23.208 8.68773 23.5806 8.68773 24.0714C8.68773 24.5622 8.36084 24.9348 7.87663 24.9348C7.36985 24.9348 7.05973 24.5454 7.05973 24.0714ZM9.23964 24.0714V22.723H8.6542V23.0504C8.46852 22.8076 8.18676 22.6552 7.80377 22.6552C7.04877 22.6552 6.45688 23.248 6.45688 24.0714C6.45688 24.8954 7.04877 25.4876 7.80377 25.4876C8.18676 25.4876 8.46852 25.3352 8.6542 25.0924V25.4198H9.23964V24.0714ZM29.0233 24.0714C29.0233 23.5974 29.3334 23.208 29.8402 23.208C30.325 23.208 30.6513 23.5806 30.6513 24.0714C30.6513 24.5622 30.325 24.9348 29.8402 24.9348C29.3334 24.9348 29.0233 24.5454 29.0233 24.0714ZM31.2038 24.0714V21.64H30.6177V23.0504C30.432 22.8076 30.1503 22.6552 29.7673 22.6552C29.0123 22.6552 28.4204 23.248 28.4204 24.0714C28.4204 24.8954 29.0123 25.4876 29.7673 25.4876C30.1503 25.4876 30.432 25.3352 30.6177 25.0924V25.4198H31.2038V24.0714ZM16.5067 23.1802C16.8838 23.1802 17.1263 23.4172 17.1882 23.8344H15.791C15.8535 23.445 16.0895 23.1802 16.5067 23.1802ZM16.5183 22.6552C15.7291 22.6552 15.1772 23.2306 15.1772 24.0714C15.1772 24.929 15.7517 25.4876 16.5576 25.4876C16.9631 25.4876 17.3345 25.3862 17.6614 25.1098L17.3745 24.6752C17.1488 24.8553 16.8613 24.9574 16.5911 24.9574C16.2139 24.9574 15.8703 24.7824 15.7858 24.2967H17.7852C17.791 24.2238 17.7968 24.1502 17.7968 24.0714C17.791 23.2306 17.2726 22.6552 16.5183 22.6552ZM23.5873 24.0714C23.5873 23.5974 23.8975 23.208 24.4042 23.208C24.8885 23.208 25.2153 23.5806 25.2153 24.0714C25.2153 24.5622 24.8885 24.9348 24.4042 24.9348C23.8975 24.9348 23.5873 24.5454 23.5873 24.0714ZM25.7673 24.0714V22.723H25.1818V23.0504C24.9955 22.8076 24.7144 22.6552 24.3314 22.6552C23.5764 22.6552 22.9845 23.248 22.9845 24.0714C22.9845 24.8954 23.5764 25.4876 24.3314 25.4876C24.7144 25.4876 24.9955 25.3352 25.1818 25.0924V25.4198H25.7673V24.0714ZM20.281 24.0714C20.281 24.8896 20.8497 25.4876 21.7176 25.4876C22.1231 25.4876 22.3933 25.3972 22.686 25.166L22.4049 24.692C22.185 24.8502 21.9542 24.9348 21.7001 24.9348C21.2327 24.929 20.889 24.5906 20.889 24.0714C20.889 23.5522 21.2327 23.2138 21.7001 23.208C21.9542 23.208 22.185 23.2926 22.4049 23.4508L22.686 22.9768C22.3933 22.7456 22.1231 22.6552 21.7176 22.6552C20.8497 22.6552 20.281 23.2532 20.281 24.0714ZM27.8292 22.6552C27.4913 22.6552 27.2715 22.8134 27.1193 23.0504V22.723H26.539V25.4198H27.1251V23.908C27.1251 23.4618 27.3166 23.2138 27.6996 23.2138C27.8182 23.2138 27.942 23.2306 28.0658 23.2816L28.2463 22.7288C28.1167 22.6778 27.9478 22.6552 27.8292 22.6552ZM12.1352 22.9374C11.8535 22.7514 11.4653 22.6552 11.0372 22.6552C10.3551 22.6552 9.91599 22.9826 9.91599 23.5186C9.91599 23.9584 10.2429 24.2296 10.8451 24.3142L11.1217 24.3536C11.4428 24.3988 11.5943 24.4834 11.5943 24.6358C11.5943 24.8444 11.3802 24.9632 10.9805 24.9632C10.5749 24.9632 10.2822 24.8334 10.0849 24.681L9.80896 25.1376C10.13 25.3746 10.5356 25.4876 10.9747 25.4876C11.7522 25.4876 12.2029 25.1208 12.2029 24.6074C12.2029 24.1334 11.8483 23.8854 11.2622 23.8008L10.9863 23.7607C10.7329 23.7272 10.5298 23.6768 10.5298 23.496C10.5298 23.2984 10.7213 23.1802 11.0424 23.1802C11.386 23.1802 11.7187 23.31 11.8818 23.4114L12.1352 22.9374ZM19.6892 22.6552C19.3513 22.6552 19.1314 22.8134 18.9799 23.0504V22.723H18.3997V25.4198H18.9851V23.908C18.9851 23.4618 19.1766 23.2138 19.5596 23.2138C19.6782 23.2138 19.802 23.2306 19.9258 23.2816L20.1063 22.7288C19.9767 22.6778 19.8078 22.6552 19.6892 22.6552ZM14.693 22.723H13.7355V21.9048H13.1436V22.723H12.5975V23.259H13.1436V24.4892C13.1436 25.115 13.3861 25.4876 14.0785 25.4876C14.3325 25.4876 14.6253 25.4088 14.811 25.279L14.642 24.7766C14.4673 24.878 14.2758 24.929 14.1236 24.929C13.8309 24.929 13.7355 24.7481 13.7355 24.4776V23.259H14.693V22.723ZM5.93915 25.4198V23.7272C5.93915 23.0898 5.5336 22.661 4.87982 22.6552C4.53616 22.6494 4.18155 22.7566 3.93332 23.135C3.74763 22.836 3.45491 22.6552 3.04356 22.6552C2.756 22.6552 2.47489 22.7398 2.25503 23.0556V22.723H1.66895V25.4198H2.26018V23.9248C2.26018 23.4566 2.51937 23.208 2.91977 23.208C3.30855 23.208 3.5052 23.4618 3.5052 23.919V25.4198H4.09709V23.9248C4.09709 23.4566 4.36724 23.208 4.75602 23.208C5.15577 23.208 5.34726 23.4618 5.34726 23.919V25.4198H5.93915Z" fill="#6F6F6F"/>
<path d="M32.4964 16.451V16.0569H32.3938L32.2751 16.3276L32.1571 16.0569H32.0538V16.451H32.1267V16.1538L32.2377 16.4103H32.3132L32.4241 16.1532V16.451H32.4964ZM31.8455 16.451V16.1241H31.9771V16.0575H31.6416V16.1241H31.7732V16.451H31.8455Z" fill="#F79410"/>
<path d="M20.8387 18.1457H11.9658V2.17419H20.8387V18.1457Z" fill="#FF5F00"/>
<path d="M12.534 10.1576C12.534 6.91767 14.0485 4.03167 16.407 2.17182C14.6823 0.811802 12.5056 5.34896e-05 10.14 5.34896e-05C4.53971 5.34896e-05 0 4.54765 0 10.1576C0 15.7675 4.53971 20.3151 10.14 20.3151C12.5056 20.3151 14.6823 19.5033 16.407 18.1433C14.0485 16.2834 12.534 13.3974 12.534 10.1576Z" fill="#EB001B"/>
<path d="M32.8051 10.1576C32.8051 15.7675 28.2654 20.3151 22.6651 20.3151C20.2995 20.3151 18.1228 19.5033 16.3975 18.1433C18.7566 16.2834 20.2711 13.3974 20.2711 10.1576C20.2711 6.91767 18.7566 4.03167 16.3975 2.17182C18.1228 0.811802 20.2995 5.34896e-05 22.6651 5.34896e-05C28.2654 5.34896e-05 32.8051 4.54765 32.8051 10.1576Z" fill="#F79E1B"/>
</svg>
