<svg width="93" height="24" viewBox="0 0 93 24" fill="none" xmlns="http://www.w3.org/2000/svg">
<path d="M34.7746 5.81836H29.6282C29.4578 5.81825 29.293 5.87897 29.1634 5.98956C29.0339 6.10016 28.9481 6.25337 28.9216 6.42158L26.8401 19.6119C26.8305 19.6731 26.8344 19.7356 26.8513 19.7952C26.8682 19.8548 26.8979 19.91 26.9382 19.9571C26.9786 20.0041 27.0286 20.0419 27.0849 20.0677C27.1413 20.0935 27.2025 20.1069 27.2645 20.1068H29.7215C29.892 20.1069 30.0569 20.0461 30.1864 19.9353C30.316 19.8246 30.4017 19.6712 30.4281 19.5028L30.9895 15.9452C31.0158 15.777 31.1014 15.6237 31.2308 15.513C31.3602 15.4022 31.525 15.3413 31.6953 15.3412H33.3245C36.7146 15.3412 38.6711 13.7016 39.1821 10.4523C39.4123 9.03076 39.1919 7.91383 38.5259 7.1316C37.7944 6.27265 36.4971 5.81836 34.7746 5.81836ZM35.3683 10.6358C35.0869 12.4816 33.6759 12.4816 32.3116 12.4816H31.535L32.0799 9.03452C32.0958 8.93367 32.1472 8.84182 32.2249 8.7755C32.3026 8.70918 32.4014 8.67274 32.5035 8.67274H32.8595C33.7888 8.67274 34.6655 8.67274 35.1185 9.20224C35.3887 9.51814 35.4714 9.98748 35.3683 10.6358ZM50.1582 10.5764H47.6938C47.5916 10.5764 47.4928 10.6128 47.4151 10.6792C47.3375 10.7455 47.286 10.8373 47.2701 10.9382L47.161 11.6271L46.9886 11.3774C46.4551 10.6035 45.2654 10.3447 44.0779 10.3447C41.3546 10.3447 39.0286 12.4064 38.5755 15.2984C38.34 16.741 38.6749 18.1204 39.4936 19.0824C40.2446 19.9669 41.3192 20.3354 42.5977 20.3354C44.7921 20.3354 46.0089 18.9252 46.0089 18.9252L45.899 19.6096C45.8892 19.6708 45.8928 19.7334 45.9096 19.7931C45.9263 19.8527 45.9558 19.9081 45.996 19.9553C46.0362 20.0024 46.0861 20.0404 46.1424 20.0664C46.1987 20.0924 46.2599 20.1059 46.3219 20.106H48.5418C48.7123 20.1061 48.8772 20.0453 49.0068 19.9345C49.1364 19.8238 49.2221 19.6704 49.2484 19.5021L50.5804 11.0713C50.5902 11.0103 50.5866 10.9478 50.5699 10.8883C50.5532 10.8287 50.5238 10.7735 50.4836 10.7264C50.4435 10.6794 50.3936 10.6416 50.3374 10.6157C50.2812 10.5898 50.2201 10.5764 50.1582 10.5764ZM46.723 15.3706C46.4852 16.7778 45.3677 17.7225 43.9425 17.7225C43.2268 17.7225 42.6549 17.4931 42.2877 17.0584C41.9235 16.6266 41.785 16.0121 41.9009 15.3277C42.1229 13.9325 43.2592 12.9569 44.6626 12.9569C45.3625 12.9569 45.9314 13.1893 46.3061 13.6278C46.6816 14.0709 46.8306 14.6891 46.723 15.3706ZM63.2836 10.5764H60.807C60.6903 10.5766 60.5753 10.6053 60.4721 10.6599C60.3689 10.7146 60.2806 10.7936 60.2148 10.89L56.7992 15.9189L55.3513 11.0864C55.3069 10.939 55.2161 10.8098 55.0925 10.718C54.9689 10.6261 54.819 10.5765 54.665 10.5764H52.2314C52.1631 10.5762 52.0957 10.5924 52.0349 10.6235C51.9741 10.6546 51.9216 10.6997 51.8818 10.7552C51.8419 10.8107 51.8159 10.8749 51.806 10.9424C51.796 11.0099 51.8022 11.0789 51.8243 11.1435L54.5522 19.1448L51.9876 22.7634C51.942 22.8275 51.915 22.903 51.9095 22.9815C51.9039 23.0599 51.9201 23.1384 51.9563 23.2084C51.9924 23.2783 52.0471 23.3369 52.1143 23.3778C52.1816 23.4187 52.2588 23.4403 52.3375 23.4403H54.811C54.9265 23.4404 55.0403 23.4126 55.1427 23.3592C55.245 23.3057 55.3329 23.2282 55.3987 23.1334L63.6357 11.2496C63.6804 11.1853 63.7066 11.11 63.7115 11.0319C63.7164 10.9538 63.6998 10.8758 63.6635 10.8065C63.6272 10.7371 63.5726 10.679 63.5056 10.6385C63.4387 10.5979 63.3619 10.5764 63.2836 10.5764Z" fill="#6F6F6F"/>
<path d="M71.4827 5.81691H66.3356C66.1653 5.81699 66.0007 5.87778 65.8713 5.98836C65.7419 6.09894 65.6562 6.25205 65.6297 6.42013L63.5482 19.6104C63.5386 19.6715 63.5422 19.734 63.559 19.7936C63.5759 19.8531 63.6054 19.9083 63.6456 19.9553C63.6858 20.0024 63.7357 20.0401 63.7919 20.066C63.8481 20.0919 63.9093 20.1053 63.9712 20.1053H66.6125C66.7316 20.1052 66.8468 20.0625 66.9373 19.985C67.0278 19.9075 67.0877 19.8003 67.1061 19.6826L67.6968 15.9437C67.7232 15.7755 67.8088 15.6222 67.9382 15.5115C68.0676 15.4008 68.2323 15.3399 68.4027 15.3398H70.0311C73.422 15.3398 75.3778 13.7001 75.8895 10.4509C76.1205 9.02931 75.8985 7.91238 75.2325 7.13015C74.5018 6.27121 73.2052 5.81691 71.4827 5.81691ZM72.0765 10.6344C71.7958 12.4801 70.3848 12.4801 69.0198 12.4801H68.2439L68.7895 9.03307C68.8051 8.93222 68.8564 8.8403 68.934 8.77394C69.0115 8.70758 69.1103 8.67116 69.2124 8.67129H69.5683C70.4969 8.67129 71.3744 8.67129 71.8274 9.2008C72.0975 9.5167 72.1796 9.98603 72.0765 10.6344ZM86.8656 10.575H84.4026C84.3005 10.5747 84.2016 10.611 84.124 10.6774C84.0464 10.7438 83.9952 10.8358 83.9797 10.9367L83.8706 11.6257L83.6975 11.376C83.164 10.602 81.975 10.3433 80.7876 10.3433C78.0642 10.3433 75.739 12.4049 75.2859 15.2969C75.0512 16.7395 75.3845 18.1189 76.2033 19.0809C76.9558 19.9655 78.0289 20.334 79.3074 20.334C81.5017 20.334 82.7185 18.9237 82.7185 18.9237L82.6087 19.6082C82.5988 19.6695 82.6025 19.7322 82.6193 19.792C82.6361 19.8518 82.6658 19.9072 82.7061 19.9544C82.7465 20.0016 82.7966 20.0395 82.8531 20.0654C82.9095 20.0914 82.9709 20.1047 83.0331 20.1046H85.2522C85.4226 20.1045 85.5873 20.0436 85.7167 19.9329C85.8461 19.8221 85.9317 19.6688 85.9581 19.5006L87.2908 11.0699C87.3002 11.0086 87.2963 10.9461 87.2793 10.8865C87.2623 10.8269 87.2325 10.7717 87.1921 10.7247C87.1517 10.6776 87.1016 10.6399 87.0453 10.6141C86.9889 10.5882 86.9276 10.5749 86.8656 10.575ZM83.4304 15.3691C83.1941 16.7764 82.0751 17.7211 80.6499 17.7211C79.9357 17.7211 79.3623 17.4917 78.9951 17.0569C78.6309 16.6252 78.4939 16.0107 78.6083 15.3262C78.8318 13.931 79.9666 12.9555 81.37 12.9555C82.0699 12.9555 82.6388 13.1879 83.0135 13.6264C83.3905 14.0694 83.5395 14.6877 83.4304 15.3691ZM89.7711 6.17869L87.6588 19.6104C87.6491 19.6715 87.6528 19.734 87.6696 19.7936C87.6864 19.8531 87.7159 19.9083 87.7561 19.9553C87.7963 20.0024 87.8462 20.0401 87.9024 20.066C87.9586 20.0919 88.0198 20.1053 88.0817 20.1053H90.2053C90.5582 20.1053 90.8577 19.8496 90.9119 19.5014L92.9949 6.31182C93.0045 6.25068 93.0008 6.18818 92.984 6.1286C92.9672 6.06902 92.9377 6.01379 92.8975 5.96669C92.8574 5.91959 92.8075 5.88175 92.7512 5.85577C92.695 5.82978 92.6339 5.81627 92.5719 5.81616H90.194C90.0919 5.81652 89.9933 5.8532 89.9158 5.91963C89.8383 5.98606 89.787 6.0779 89.7711 6.17869Z" fill="#838383"/>
<path d="M17.3443 6.50781C17.3233 6.64245 17.2992 6.78009 17.2721 6.92149C16.3412 11.6983 13.1566 13.3485 9.08927 13.3485H7.01835C6.52094 13.3485 6.10179 13.7096 6.02428 14.2L4.96399 20.9211L4.66373 22.8263C4.65177 22.9018 4.65634 22.9791 4.67712 23.0527C4.6979 23.1264 4.7344 23.1947 4.7841 23.2528C4.83381 23.311 4.89554 23.3578 4.96504 23.3898C5.03455 23.4219 5.11018 23.4385 5.18673 23.4385H8.85975C9.2947 23.4385 9.66419 23.1226 9.73266 22.6939L9.76878 22.5074L10.4603 18.1209L10.5047 17.8802C10.5725 17.45 10.9427 17.1341 11.3777 17.1341H11.927C15.4856 17.1341 18.2714 15.69 19.0857 11.5111C19.4258 9.76534 19.2497 8.30769 18.3497 7.28252C18.0644 6.96539 17.7238 6.70286 17.3443 6.50781Z" fill="#838383"/>
<path d="M16.3697 6.11864C16.0725 6.0327 15.7702 5.96563 15.4645 5.91782C14.8604 5.82504 14.25 5.78052 13.6389 5.78469H8.1064C7.89585 5.78453 7.69219 5.85966 7.53223 5.9965C7.37227 6.13334 7.26657 6.32287 7.23423 6.53082L6.0573 13.9815L6.02344 14.1989C6.0601 13.9617 6.18049 13.7455 6.36282 13.5893C6.54515 13.4331 6.77739 13.3474 7.01751 13.3475H9.08843C13.1558 13.3475 16.3404 11.6965 17.2713 6.92043C17.2991 6.77902 17.3224 6.64138 17.3435 6.50675C17.0979 6.378 16.8419 6.27007 16.5782 6.18408C16.5091 6.16115 16.4396 6.13934 16.3697 6.11864Z" fill="#474747"/>
<path d="M7.2346 6.53195C7.26666 6.32394 7.3723 6.13433 7.53234 5.99755C7.69238 5.86078 7.8962 5.78592 8.10676 5.78658H13.6392C14.2947 5.78658 14.9065 5.82945 15.4648 5.91971C15.8427 5.97906 16.2153 6.06783 16.5793 6.18521C16.854 6.27622 17.1091 6.38378 17.3446 6.50788C17.6215 4.7426 17.3424 3.54068 16.3874 2.45233C15.3347 1.25417 13.4346 0.741211 11.0032 0.741211H3.94461C3.44795 0.741211 3.02428 1.10224 2.94753 1.59339L0.00745719 20.2202C-0.00623717 20.3067 -0.00102693 20.3951 0.0227295 20.4793C0.0464859 20.5636 0.0882247 20.6418 0.145075 20.7084C0.201925 20.775 0.272537 20.8285 0.352054 20.8652C0.431571 20.902 0.518106 20.921 0.605705 20.9212H4.96351L6.05767 13.9827L7.2346 6.53195Z" fill="#6F6F6F"/>
</svg>
