<svg width="17" height="16" viewBox="0 0 17 16" fill="none" xmlns="http://www.w3.org/2000/svg">
<path d="M3.31388 4.32506L2.06738 15.0922H15.1556L13.9091 4.32506H3.31388Z" stroke="white" stroke-miterlimit="10" stroke-linecap="round"/>
<path d="M11.4159 5.86319C11.4159 5.48142 11.4159 3.7839 11.4159 3.40212C11.4159 1.87288 10.1603 0.633423 8.61125 0.633423C7.06217 0.633423 5.80664 1.87288 5.80664 3.40212C5.80664 3.7839 5.80664 5.48142 5.80664 5.86319" stroke="white" stroke-miterlimit="10" stroke-linecap="round"/>
<path d="M11.4162 6.47846C11.7604 6.47846 12.0395 6.203 12.0395 5.86319C12.0395 5.52339 11.7604 5.24792 11.4162 5.24792C11.072 5.24792 10.793 5.52339 10.793 5.86319C10.793 6.203 11.072 6.47846 11.4162 6.47846Z" fill="white"/>
<path d="M5.80684 6.47846C6.15105 6.47846 6.43009 6.203 6.43009 5.86319C6.43009 5.52339 6.15105 5.24792 5.80684 5.24792C5.46263 5.24792 5.18359 5.52339 5.18359 5.86319C5.18359 6.203 5.46263 6.47846 5.80684 6.47846Z" fill="white"/>
</svg>
