<svg width="22" height="14" viewBox="0 0 22 14" fill="none" xmlns="http://www.w3.org/2000/svg">
<path d="M20.7062 9.25745L11.4359 4.3252H11.3979V3.64228C12.0818 3.33875 12.5377 2.69377 12.5377 1.89702C12.5377 0.834688 11.7018 0 10.638 0C9.57424 0 8.73839 0.834688 8.73839 1.89702H9.49825C9.49825 1.25203 9.99216 0.758808 10.638 0.758808C11.2839 0.758808 11.7778 1.25203 11.7778 1.89702C11.7778 2.54201 11.2839 3.03523 10.638 3.03523V3.41463V3.79404V4.3252H10.6001L1.32976 9.25745C0.493909 9.71274 0 10.5474 0 11.4959C0 12.8618 1.13979 14 2.50754 14H19.4904C20.8962 14 21.998 12.8618 21.998 11.4959C22.0359 10.5474 21.542 9.71274 20.7062 9.25745ZM19.5284 13.2412H2.50754C1.55771 13.2412 0.75986 12.4444 0.75986 11.4959C0.75986 10.8509 1.1018 10.2439 1.67169 9.94038L10.942 4.97019C10.98 4.97019 10.98 4.97019 11.018 4.97019C11.056 4.97019 11.056 4.97019 11.094 4.97019L20.3643 9.94038C20.9342 10.2439 21.2761 10.8509 21.2761 11.4959C21.2761 12.4444 20.4782 13.2412 19.5284 13.2412Z" fill="black"/>
</svg>
