<svg width="22" height="22" viewBox="0 0 22 22" fill="none" xmlns="http://www.w3.org/2000/svg">
<path d="M13.3367 15.1646C13.2675 14.4104 13.2941 13.8841 13.2941 13.1949C13.6398 13.0157 14.2594 11.8731 14.3641 10.9079C14.636 10.8859 15.0647 10.6239 15.1902 9.58943C15.2579 9.03406 14.9889 8.72152 14.825 8.62326C15.2674 7.309 16.1864 3.24315 13.1254 2.82299C12.8104 2.27652 12.0037 2 10.9555 2C6.76147 2.07626 6.25558 5.12822 7.175 8.62326C7.01158 8.72152 6.74253 9.03406 6.80979 9.58943C6.93579 10.6239 7.364 10.8859 7.6359 10.9079C7.74011 11.8727 8.38432 13.0157 8.73105 13.1949C8.73105 13.8841 8.75711 14.4104 8.68795 15.1646C7.85805 17.3683 2.25863 16.7498 2 21H20C19.7418 16.7498 14.1666 17.3683 13.3367 15.1646Z" stroke="#1F1F1F" stroke-miterlimit="10" stroke-linecap="round"/>
</svg>
