<svg width="34" height="34" viewBox="0 0 34 34" fill="none" xmlns="http://www.w3.org/2000/svg">
<circle cx="17" cy="17" r="17" fill="#707070"/>
<path d="M19.1244 20.786C19.0616 20.1004 19.0857 19.6219 19.0857 18.9953C19.4 18.8324 19.9633 17.7938 20.0585 16.9163C20.3056 16.8963 20.6953 16.6581 20.8095 15.7177C20.871 15.2128 20.6264 14.9286 20.4775 14.8393C20.8797 13.6445 21.7151 9.94831 18.9324 9.56636C18.646 9.06956 17.9127 8.81818 16.9597 8.81818C13.147 8.88751 12.6871 11.662 13.5229 14.8393C13.3743 14.9286 13.1297 15.2128 13.1909 15.7177C13.3054 16.6581 13.6947 16.8963 13.9419 16.9163C14.0366 17.7933 14.6223 18.8324 14.9375 18.9953C14.9375 19.6219 14.9612 20.1004 14.8983 20.786C14.1439 22.7894 9.05348 22.2271 8.81836 26.0909H25.182C24.9473 22.2271 19.8789 22.7894 19.1244 20.786Z" stroke="white" stroke-miterlimit="10" stroke-linecap="round"/>
</svg>
