<svg width="60" height="20" viewBox="0 0 60 20" fill="none" xmlns="http://www.w3.org/2000/svg">
<path d="M26.1908 18.9215H21.3936L24.3941 0.36853H29.191L26.1908 18.9215Z" fill="#6F6F6F"/>
<path d="M43.5817 0.822344C42.6355 0.446951 41.1347 0.0324707 39.279 0.0324707C34.5416 0.0324707 31.2056 2.5587 31.1851 6.17045C31.1458 8.83519 33.5736 10.3152 35.3895 11.2038C37.2454 12.1117 37.8763 12.7043 37.8763 13.5136C37.8575 14.7565 36.3766 15.3294 34.9954 15.3294C33.0802 15.3294 32.0539 15.034 30.4944 14.3425L29.8627 14.0461L29.1914 18.2108C30.3165 18.7234 32.3895 19.1783 34.5416 19.1982C39.5752 19.1982 42.8522 16.7111 42.891 12.8622C42.9102 10.7502 41.6282 9.13188 38.8643 7.80948C37.1864 6.96058 36.1589 6.38818 36.1589 5.51961C36.1785 4.73 37.028 3.92124 38.922 3.92124C40.4815 3.88163 41.6274 4.25649 42.4954 4.63163L42.9293 4.82863L43.5817 0.822344Z" fill="#6F6F6F"/>
<path d="M49.9572 12.3488C50.3523 11.283 51.8725 7.15787 51.8725 7.15787C51.8526 7.19748 52.2668 6.07235 52.5037 5.38164L52.8389 6.98027C52.8389 6.98027 53.7474 11.4212 53.9446 12.3488C53.1949 12.3488 50.9048 12.3488 49.9572 12.3488ZM55.8788 0.36853H52.1681C51.0239 0.36853 50.1545 0.703787 49.6608 1.90788L42.5352 18.9212H47.5687C47.5687 18.9212 48.3974 16.6314 48.5755 16.1382C49.1278 16.1382 54.0244 16.1382 54.7348 16.1382C54.8725 16.7895 55.3072 18.9212 55.3072 18.9212H59.7489L55.8788 0.36853Z" fill="#6F6F6F"/>
<path d="M17.3869 0.36853L12.6888 13.0199L12.1754 10.454C11.3069 7.49339 8.58284 4.27671 5.54297 2.67729L9.84622 18.9018H14.9191L22.4595 0.36853H17.3869Z" fill="#6F6F6F"/>
<path d="M8.32651 0.36853H0.608258L0.529297 0.743398C6.55001 2.28301 10.5374 5.99418 12.1757 10.4548L10.4978 1.92808C10.2216 0.743136 9.37267 0.407617 8.32651 0.36853Z" fill="#FAA61A"/>
</svg>
