<svg width="24" height="15" viewBox="0 0 24 15" fill="none" xmlns="http://www.w3.org/2000/svg">
<path d="M22.8559 14.6114H19.7177C19.3441 14.6114 18.9705 14.3873 18.7463 14.0884L18.4474 13.6027C18.2606 13.3786 16.5421 11.3985 15.496 10.7633C15.085 10.5392 14.9356 10.5765 14.9356 10.5765C14.9356 10.5765 14.8982 10.6886 14.8982 10.726V12.7061C14.8982 13.7522 14.0389 14.5741 13.0302 14.5741H12.283C12.0962 14.5741 7.91188 14.4994 4.58682 9.53046C1.97161 5.645 1.11233 3.10451 0.813444 1.64746C0.738723 1.31122 0.850804 0.97498 1.0376 0.713459C1.26177 0.451937 1.56065 0.302497 1.89689 0.302497H4.54946C5.03514 0.302497 5.44611 0.601378 5.59555 1.08706C5.89443 1.94634 6.64163 4.15059 7.53827 5.57028C8.84588 7.73717 9.36892 7.92397 9.51836 7.92397C9.63044 7.73717 9.59308 6.98997 9.59308 6.50428C9.59308 6.28012 9.59308 6.09332 9.59308 5.86916C9.59308 5.71972 9.59308 5.53292 9.59308 5.34612C9.59308 4.41212 9.63044 3.14187 9.25684 2.54411L8.50964 1.46066C8.3602 1.2365 8.32284 0.93762 8.47228 0.676099C8.58436 0.414578 8.84588 0.265137 9.14476 0.265137H13.4038C14.0389 0.265137 14.5246 0.788179 14.5246 1.38594V6.76581C14.5246 6.80317 14.562 6.84053 14.562 6.84053C14.562 6.84053 14.7114 6.84053 15.1224 6.46692C15.9817 5.60764 17.0651 4.00115 18.1486 1.7969L18.5222 0.93762C18.709 0.526658 19.1199 0.265137 19.5682 0.265137H22.3329C22.7065 0.265137 23.0427 0.451938 23.2669 0.750819C23.4911 1.0497 23.5284 1.46066 23.379 1.7969L23.0801 2.58147V2.61883C23.0427 2.69355 22.034 4.67364 20.9879 6.13068C20.166 7.25149 19.8298 7.77453 19.9045 7.96133C19.9792 8.07341 20.4649 8.63381 20.9506 9.08214C21.8472 10.0161 22.968 11.2117 23.379 11.9962C23.5658 12.3325 23.7526 12.6314 23.8647 12.8929C24.0515 13.2291 24.0515 13.6401 23.8273 14.0137C23.6031 14.4246 23.2669 14.6114 22.8559 14.6114ZM15.0103 9.82934C15.2718 9.82934 15.5707 9.94142 15.907 10.1282C17.1398 10.8381 19.0078 13.0423 19.0826 13.1544L19.1199 13.1918L19.4188 13.6774C19.4935 13.7895 19.6056 13.8642 19.7551 13.8642H22.8559C23.0427 13.8642 23.1548 13.7522 23.1922 13.6774C23.2295 13.6401 23.3043 13.4906 23.1922 13.3038C23.0427 13.0423 22.8933 12.7434 22.7065 12.4072C22.3329 11.7347 21.2121 10.5392 20.3902 9.64254C19.5682 8.74589 19.2694 8.44701 19.1946 8.26021C18.9705 7.69981 19.3067 7.25149 20.3902 5.75708C21.3615 4.41212 22.2955 2.58147 22.4076 2.35731L22.7065 1.57274C22.7439 1.46066 22.7439 1.31122 22.6691 1.2365C22.5944 1.12442 22.4823 1.08706 22.3703 1.08706H19.6056C19.4562 1.08706 19.3067 1.16178 19.2694 1.31122L18.8958 2.20787C18.0738 3.81435 16.8783 5.94388 15.7202 7.10205C15.2345 7.58773 14.7861 7.73717 14.4125 7.62509C13.9642 7.47565 13.8521 6.98997 13.8521 6.95261C13.8521 6.91525 13.8521 6.91525 13.8521 6.87789V1.46066C13.8521 1.2365 13.6653 1.08706 13.4785 1.08706H9.14476L9.89196 2.17051C10.3776 2.95507 10.3776 4.3374 10.3403 5.42084C10.3403 5.60764 10.3403 5.75708 10.3403 5.90652C10.3403 6.09332 10.3403 6.31748 10.3403 6.50428C10.3776 7.55037 10.3776 8.52173 9.70516 8.67117C8.95796 8.82061 8.1734 8.03605 6.90315 5.98124C6.04387 4.5242 5.29666 2.46939 4.92306 1.34858C4.8857 1.19914 4.73626 1.08706 4.54946 1.08706H1.93425C1.82217 1.08706 1.71009 1.12442 1.63537 1.2365C1.56065 1.31122 1.56065 1.4233 1.56065 1.53538C1.82217 2.91771 2.68145 5.34612 5.22194 9.15686C8.32284 13.7895 12.2457 13.8642 12.283 13.8642H13.0302C13.6653 13.8642 14.151 13.3412 14.151 12.7434V10.7633C14.151 10.726 14.151 10.2029 14.562 9.94142C14.7114 9.8667 14.8609 9.82934 15.0103 9.82934Z" fill="#D80000"/>
</svg>
