<?xml version="1.0" encoding="UTF-8" standalone="no"?>
<svg
   xmlns:dc="http://purl.org/dc/elements/1.1/"
   xmlns:cc="http://creativecommons.org/ns#"
   xmlns:rdf="http://www.w3.org/1999/02/22-rdf-syntax-ns#"
   xmlns:svg="http://www.w3.org/2000/svg"
   xmlns="http://www.w3.org/2000/svg"
   viewBox="0 0 379.83868 411.45734"
   height="411.45734"
   width="379.83868"
   xml:space="preserve"
   id="svg2"
   version="1.1"><metadata
     id="metadata8"><rdf:RDF><cc:Work
         rdf:about=""><dc:format>image/svg+xml</dc:format><dc:type
           rdf:resource="http://purl.org/dc/dcmitype/StillImage" /></cc:Work></rdf:RDF></metadata><defs
     id="defs6"><clipPath
       id="clipPath18"
       clipPathUnits="userSpaceOnUse"><path
         id="path16"
         d="M 0,308.593 H 284.879 V 0 H 0 Z" /></clipPath><clipPath
       id="clipPath54"
       clipPathUnits="userSpaceOnUse"><path
         id="path52"
         d="m 141.243,272.559 c -0.151,0.025 -0.238,0.038 -0.238,0.038 v 0 -0.08 c -5.412,-0.954 -56.109,-11.053 -57.913,-54.843 v 0 l -0.173,-16.459 c 0,0 -3.812,6.237 -6.93,3.118 v 0 c -3.12,-3.118 -4.159,-20.964 9.009,-30.494 v 0 c 3.985,-23.043 3.292,-26.508 6.931,-31.013 v 0 c 3.62,-4.483 16.683,-15.994 49.076,-16.108 v 0 -0.005 c 0.081,0 0.157,0.002 0.238,0.002 v 0 c 0.08,0 0.157,-0.002 0.238,-0.002 v 0 0.005 c 32.393,0.114 45.456,11.625 49.077,16.108 v 0 c 3.638,4.505 2.945,7.97 6.93,31.013 v 0 c 13.168,9.53 12.128,27.376 9.01,30.494 v 0 c -3.12,3.119 -6.931,-3.118 -6.931,-3.118 v 0 l -0.173,16.459 c -1.804,43.79 -52.501,53.889 -57.913,54.843 v 0 0.08 c 0,0 -0.087,-0.013 -0.238,-0.038" /></clipPath><radialGradient
       id="radialGradient66"
       spreadMethod="pad"
       gradientTransform="matrix(70.153404,0,0,-70.153404,141.24289,199.65532)"
       gradientUnits="userSpaceOnUse"
       r="1"
       cy="0"
       cx="0"
       fy="0"
       fx="0"><stop
         id="stop60"
         offset="0"
         style="stop-opacity:1;stop-color:#ffffff" /><stop
         id="stop62"
         offset="0.521182"
         style="stop-opacity:1;stop-color:#ffffff" /><stop
         id="stop64"
         offset="1"
         style="stop-opacity:1;stop-color:#a9abae" /></radialGradient><clipPath
       id="clipPath76"
       clipPathUnits="userSpaceOnUse"><path
         id="path74"
         d="M 0,308.593 H 284.879 V 0 H 0 Z" /></clipPath></defs><g
     transform="matrix(1.3333333,0,0,-1.3333333,0,411.45733)"
     id="g10"><g
       id="g12"><g
         clip-path="url(#clipPath18)"
         id="g14"><g
           transform="translate(109.0573,80.8934)"
           id="g20"><path
             id="path22"
             style="fill:#ffffff;fill-opacity:1;fill-rule:nonzero;stroke:none"
             d="M 0,0 C 0,0 -1.774,5.144 4.237,8.792 5.223,8.418 5.715,7.857 5.715,7.857 c 0,0 0.395,-3.18 -0.788,-3.648 C 3.745,3.741 3.35,4.49 2.759,3.554 2.168,2.619 2.168,-1.684 0,0" /></g><g
           transform="translate(109.0573,80.8934)"
           id="g24"><path
             id="path26"
             style="fill:none;stroke:#000000;stroke-width:1;stroke-linecap:butt;stroke-linejoin:miter;stroke-miterlimit:10;stroke-dasharray:none;stroke-opacity:1"
             d="M 0,0 C 0,0 -1.774,5.144 4.237,8.792 5.223,8.418 5.715,7.857 5.715,7.857 c 0,0 0.395,-3.18 -0.788,-3.648 C 3.745,3.741 3.35,4.49 2.759,3.554 2.168,2.619 2.168,-1.684 0,0 Z" /></g><g
           transform="translate(175.8974,80.8934)"
           id="g28"><path
             id="path30"
             style="fill:#ffffff;fill-opacity:1;fill-rule:nonzero;stroke:none"
             d="M 0,0 C 0,0 1.774,5.144 -4.237,8.792 -5.223,8.418 -5.715,7.857 -5.715,7.857 c 0,0 -0.395,-3.18 0.788,-3.648 C -3.745,3.741 -3.35,4.49 -2.759,3.554 -2.168,2.619 -2.168,-1.684 0,0" /></g><g
           transform="translate(175.8974,80.8934)"
           id="g32"><path
             id="path34"
             style="fill:none;stroke:#000000;stroke-width:1;stroke-linecap:butt;stroke-linejoin:miter;stroke-miterlimit:10;stroke-dasharray:none;stroke-opacity:1"
             d="M 0,0 C 0,0 1.774,5.144 -4.237,8.792 -5.223,8.418 -5.715,7.857 -5.715,7.857 c 0,0 -0.395,-3.18 0.788,-3.648 C -3.745,3.741 -3.35,4.49 -2.759,3.554 -2.168,2.619 -2.168,-1.684 0,0 Z" /></g><g
           transform="translate(134.1473,109.6959)"
           id="g36"><path
             id="path38"
             style="fill:#000000;fill-opacity:1;fill-rule:nonzero;stroke:none"
             d="M 0,0 C -2.015,4.821 -5.565,7.795 -8.441,9.531 -10.59,5.144 -21.247,-19.73 -21.247,-19.73 l 2.365,-1.403 c 0,0 7.095,12.721 12.121,25.441 5.064,-5.833 6.544,-15.434 6.893,-22.512 C 2.169,-11.201 2.135,-5.11 0,0" /></g><g
           transform="translate(159.2484,119.2266)"
           id="g40"><path
             id="path42"
             style="fill:#000000;fill-opacity:1;fill-rule:nonzero;stroke:none"
             d="m 0,0 c -2.876,-1.736 -6.426,-4.709 -8.441,-9.531 -2.135,-5.11 -2.169,-11.2 -0.132,-18.203 0.349,7.077 1.829,16.678 6.893,22.511 5.026,-12.72 12.121,-25.441 12.121,-25.441 l 2.365,1.403 C 12.806,-29.261 2.149,-4.386 0,0" /></g><g
           transform="translate(202.0396,210.7587)"
           id="g44"><path
             id="path46"
             style="fill:#000000;fill-opacity:1;fill-rule:nonzero;stroke:none"
             d="m 0,0 c 0.182,13.503 -0.365,14.598 -0.365,14.598 0,0 -7.045,13.542 -11.204,22.898 -4.063,9.143 -42.856,28.203 -49.228,28.095 -6.371,0.108 -45.164,-18.952 -49.228,-28.095 -4.158,-9.356 -11.203,-22.898 -11.203,-22.898 0,0 -0.548,-1.095 -0.365,-14.598 -1.642,2.19 -11.24,0.399 -9.597,-15.658 1.643,-16.058 11.604,-22.844 11.604,-22.844 0,0 2.555,-16.058 3.832,-23.357 1.277,-7.299 7.299,-13.686 21.715,-19.525 14.415,-5.839 33.21,-4.927 33.21,-4.927 h 0.065 c 0,0 18.795,-0.912 33.21,4.927 14.416,5.839 20.437,12.226 21.715,19.525 1.277,7.299 3.832,23.357 3.832,23.357 0,0 9.96,6.786 11.603,22.844 C 11.239,0.399 1.642,2.19 0,0" /></g></g></g><g
       id="g48"><g
         clip-path="url(#clipPath54)"
         id="g50"><g
           id="g56"><g
             id="g58"><path
               id="path68"
               style="fill:url(#radialGradient66);stroke:none"
               d="m 141.243,272.559 c -0.151,0.025 -0.238,0.038 -0.238,0.038 v 0 -0.08 c -5.412,-0.954 -56.109,-11.053 -57.913,-54.843 v 0 l -0.173,-16.459 c 0,0 -3.812,6.237 -6.93,3.118 v 0 c -3.12,-3.118 -4.159,-20.964 9.009,-30.494 v 0 c 3.985,-23.043 3.292,-26.508 6.931,-31.013 v 0 c 3.62,-4.483 16.683,-15.994 49.076,-16.108 v 0 -0.005 c 0.081,0 0.157,0.002 0.238,0.002 v 0 c 0.08,0 0.157,-0.002 0.238,-0.002 v 0 0.005 c 32.393,0.114 45.456,11.625 49.077,16.108 v 0 c 3.638,4.505 2.945,7.97 6.93,31.013 v 0 c 13.168,9.53 12.128,27.376 9.01,30.494 v 0 c -3.12,3.119 -6.931,-3.118 -6.931,-3.118 v 0 l -0.173,16.459 c -1.804,43.79 -52.501,53.889 -57.913,54.843 v 0 0.08 c 0,0 -0.087,-0.013 -0.238,-0.038" /></g></g></g></g><g
       id="g70"><g
         clip-path="url(#clipPath76)"
         id="g72"><g
           transform="translate(82.5933,204.3996)"
           id="g78"><path
             id="path80"
             style="fill:#000000;fill-opacity:1;fill-rule:nonzero;stroke:none"
             d="m 0,0 c 0,0 -2.961,10.391 -5.552,19.483 0.624,0.45 0.932,0.779 2.284,1.683 7.601,4.439 8.751,15.362 2.139,21.111 -3.161,2.587 -7.473,3.45 -11.498,2.013 -4.024,-1.438 -6.611,-5.175 -6.611,-9.486 0,-4.312 3.162,-8.049 7.474,-8.624 2.874,-0.575 5.749,1.15 7.186,3.449 0.862,1.725 1.15,3.737 0.288,5.462 -1.15,2.3 -4.025,4.024 -6.324,2.3 -2.3,-2.013 -0.575,-4.025 1.437,-5.462 -1.437,-1.437 -3.45,-0.575 -4.599,0.862 -1.15,1.438 -0.575,3.162 0,4.6 1.437,2.587 4.886,3.449 7.761,2.299 4.312,-1.724 5.461,-7.186 3.449,-11.21 -2.299,-3.737 -6.324,-5.462 -10.348,-4.6 -3.449,0.863 -6.324,3.162 -7.761,6.612 -2.012,5.461 -0.288,11.21 4.599,14.66 5.174,3.449 11.211,2.587 16.202,-0.197 0.439,0.561 0.886,1.132 1.338,1.709 3.22,4.113 6.718,8.582 9.834,12.562 0.785,-0.295 1.122,-0.297 1.67,-0.394 5.738,-3.044 12.924,-1.607 17.236,3.28 3.737,4.311 4.024,10.923 0.575,15.522 -3.162,4.024 -8.049,5.749 -12.648,4.312 -3.45,-1.15 -6.324,-3.737 -7.187,-7.474 -1.149,-5.174 1.725,-10.923 7.187,-11.786 3.449,-0.574 7.186,0.863 8.911,4.025 2.012,3.449 0.575,8.048 -2.875,9.773 -2.587,1.437 -5.749,0.575 -7.473,-2.012 -1.725,-2.875 0,-6.611 3.449,-6.611 1.15,0 3.162,1.437 2.3,2.587 -0.863,1.149 -4.025,1.149 -2.3,2.874 1.437,2.012 4.312,-0.287 4.599,-2.587 0.288,-3.162 -2.587,-5.461 -5.461,-5.174 -2.587,0.575 -5.175,2.587 -5.462,5.462 -0.575,3.736 2.012,6.898 5.462,8.048 3.162,0.863 6.036,0 8.336,-2.299 2.874,-3.162 3.449,-8.049 0.862,-11.786 -3.449,-5.174 -10.636,-6.324 -15.522,-2.3 -3.162,2.588 -4.6,6.324 -4.312,10.349 0.575,8.623 10.061,13.797 17.822,10.635 3.449,-1.437 5.174,-4.599 8.447,-6.338 0.635,0.276 1.277,0.554 1.923,0.834 9.679,4.198 20.103,8.72 20.103,8.72 0,0 15.968,-5.477 28.942,-9.927 0.683,-0.234 1.357,-0.466 2.021,-0.693 0.653,-0.357 0.653,-1.219 0.653,-1.507 0.288,-6.036 2.875,-12.36 8.911,-14.947 5.175,-2.3 11.211,-0.575 14.661,4.024 2.874,4.025 2.874,9.199 0,13.223 -3.162,4.312 -9.774,5.749 -14.086,2.012 -3.162,-2.874 -4.024,-7.474 -1.437,-11.21 1.437,-1.725 3.737,-2.875 6.037,-2.875 2.299,0.288 4.311,1.725 5.174,4.024 0.287,1.725 0.287,3.45 -1.15,4.887 -1.15,0.862 -2.3,1.15 -3.737,0.862 -1.437,-0.575 -1.15,-2.299 -0.575,-3.162 0.288,-0.287 2.012,0.288 1.725,-0.862 0,-2.3 -2.875,-2.012 -4.312,-0.862 -1.437,1.724 -1.15,4.024 0.575,5.749 1.15,1.15 2.587,1.724 4.024,1.724 3.162,-0.287 5.749,-2.874 6.037,-6.036 0.287,-4.024 -2.587,-7.474 -6.324,-8.336 -4.024,-0.862 -7.761,1.15 -10.061,4.599 -1.725,3.162 -1.725,6.611 0,9.773 2.587,5.175 9.199,7.474 14.66,5.175 2.875,-1.15 5.174,-3.45 6.612,-6.324 2.874,-6.037 0.574,-12.936 -4.541,-17.032 0.395,-0.564 0.795,-1.137 1.201,-1.718 2.506,-3.585 5.199,-7.439 7.693,-11.008 -0.392,-0.78 -0.659,-1.463 -1.467,-2.659 -5.186,-6.102 -4.036,-15.875 2.863,-20.474 3.736,-2.3 8.048,-2.3 11.785,-0.863 5.462,2.3 8.049,8.624 6.037,14.085 -2.013,4.887 -7.762,7.474 -12.648,5.462 -4.312,-2.012 -6.324,-7.186 -4.025,-11.498 1.725,-3.162 5.462,-4.312 8.624,-3.162 3.449,1.437 4.887,6.036 2.3,8.911 -1.438,1.437 -3.737,1.437 -5.462,0.287 -1.437,-1.15 -0.287,-3.449 1.15,-3.737 -0.288,0.863 0.287,1.438 0.287,2.3 1.437,-0.287 2.875,-1.725 1.725,-3.162 -1.725,-1.725 -4.887,-1.437 -5.749,0.862 -1.15,3.162 1.437,6.324 4.599,6.612 5.174,0.287 8.049,-5.462 6.324,-9.774 -2.012,-4.311 -7.474,-6.036 -11.785,-4.024 -4.6,2.3 -6.324,8.049 -4.6,12.648 2.587,6.037 10.349,8.336 16.098,4.887 4.311,-2.587 6.036,-7.474 5.461,-12.361 -1.15,-8.623 -9.773,-10.923 -16.802,-11.968 -0.296,-0.692 -0.576,-1.386 -0.87,-2.069 -2.193,-6.238 -4.187,-11.91 -4.187,-11.91 l -13.129,33.04 -28.882,12.91 c 0,0 -20.35,-5.689 -25.382,-11.816 5.689,12.691 6.564,17.286 6.564,17.286 l -12.91,-6.345 c 0,0 -18.598,-6.783 -24.725,-7.877 C 14.71,40.936 9.678,36.778 9.678,36.778 L 8.802,15.554 Z" /></g><g
           transform="translate(99.5457,188.0947)"
           id="g82"><path
             id="path84"
             style="fill:#000000;fill-opacity:1;fill-rule:nonzero;stroke:none"
             d="m 0,0 -18.38,20.13 0.767,0.701 L 0.767,0.7 Z" /></g><g
           transform="translate(182.0933,193.7326)"
           id="g86"><path
             id="path88"
             style="fill:#000000;fill-opacity:1;fill-rule:nonzero;stroke:none"
             d="m 0,0 -0.66,0.803 19.693,16.192 0.66,-0.803 z" /></g><g
           transform="translate(119.474,168.3548)"
           id="g90"><path
             id="path92"
             style="fill:#000000;fill-opacity:1;fill-rule:nonzero;stroke:none"
             d="m 0,0 c -11.47,0 -20.801,9.331 -20.801,20.801 0,11.47 9.331,20.801 20.801,20.801 11.47,0 20.8,-9.331 20.8,-20.801 C 20.8,9.331 11.47,0 0,0" /></g><g
           transform="translate(119.474,208.3971)"
           id="g94"><path
             id="path96"
             style="fill:#c4c4c4;fill-opacity:1;fill-rule:nonzero;stroke:none"
             d="m 0,0 c -10.61,0 -19.242,-8.632 -19.242,-19.242 0,-10.609 8.632,-19.241 19.242,-19.241 10.61,0 19.241,8.632 19.241,19.241 C 19.241,-8.632 10.61,0 0,0" /></g><g
           transform="translate(162.6442,168.3548)"
           id="g98"><path
             id="path100"
             style="fill:#000000;fill-opacity:1;fill-rule:nonzero;stroke:none"
             d="m 0,0 c -11.47,0 -20.8,9.331 -20.8,20.801 0,11.47 9.33,20.801 20.8,20.801 11.47,0 20.8,-9.331 20.8,-20.801 C 20.8,9.331 11.47,0 0,0" /></g><g
           transform="translate(162.6442,208.3971)"
           id="g102"><path
             id="path104"
             style="fill:#c4c4c4;fill-opacity:1;fill-rule:nonzero;stroke:none"
             d="m 0,0 c -10.61,0 -19.241,-8.632 -19.241,-19.242 0,-10.609 8.631,-19.241 19.241,-19.241 10.61,0 19.241,8.632 19.241,19.241 C 19.241,-8.632 10.61,0 0,0" /></g><path
           id="path106"
           style="fill:#000000;fill-opacity:1;fill-rule:nonzero;stroke:none"
           d="m 142.689,189.256 h -3.271 v 1.559 h 3.271 z" /><g
           transform="translate(172.453,213.6289)"
           id="g108"><path
             id="path110"
             style="fill:#000000;fill-opacity:1;fill-rule:nonzero;stroke:none"
             d="m 0,0 h -63.583 c -0.287,0 -0.519,0.232 -0.519,0.52 0,0.287 0.232,0.52 0.519,0.52 H 0 C 0.287,1.04 0.52,0.807 0.52,0.52 0.52,0.232 0.287,0 0,0" /></g><g
           transform="translate(153.563,155.3916)"
           id="g112"><path
             id="path114"
             style="fill:#000000;fill-opacity:1;fill-rule:nonzero;stroke:none"
             d="M 0,0 C -5.081,0 -11.84,-0.14 -11.915,-0.142 -11.99,-0.14 -18.749,0 -23.83,0 c -5.109,0 -6.812,-3.974 -1.987,-9.509 4.785,-5.489 13.745,-5.813 13.895,-5.818 v -10e-4 h 0.007 0.007 v 10e-4 c 0.15,0.005 9.11,0.329 13.895,5.818 C 6.812,-3.974 5.109,0 0,0" /></g><g
           transform="translate(141.6481,149.5794)"
           id="g116"><path
             id="path118"
             style="fill:#ffffff;fill-opacity:1;fill-rule:nonzero;stroke:none"
             d="m 0,0 c -1.194,0.05 -9.406,0.301 -8.839,-2.358 0.382,-1.792 3.03,-3.303 8.69,-3.457 v -0.011 c 0.052,10e-4 0.098,0.004 0.149,0.005 0.051,-0.001 0.097,-0.004 0.149,-0.005 v 0.011 c 5.66,0.154 8.308,1.665 8.69,3.457 C 9.406,0.301 1.194,0.05 0,0" /></g><g
           transform="translate(134.9634,290.729)"
           id="g120"><path
             id="path122"
             style="fill:#000000;fill-opacity:1;fill-rule:nonzero;stroke:none"
             d="M 0,0 C 0,0 -1.228,12.533 -15.834,17.864 1.377,17.181 9.744,-0.812 9.744,-0.812 Z" /></g><g
           transform="translate(143.0804,286.8297)"
           id="g124"><path
             id="path126"
             style="fill:#5e5e5e;fill-opacity:1;fill-rule:nonzero;stroke:none"
             d="M 0,0 C 0,0 0.933,9.523 12.031,13.573 -1.047,13.054 -7.404,-0.617 -7.404,-0.617 Z" /></g><g
           transform="translate(78.8841,201.8597)"
           id="g128"><path
             id="path130"
             style="fill:#ffffff;fill-opacity:1;fill-rule:nonzero;stroke:none"
             d="m 0,0 c 0,0 -4.489,-0.842 -2.946,-8.558 1.543,-7.716 1.964,-6.733 1.964,-6.733 0,0 -2.385,13.327 1.122,12.626 C 1.403,-2.385 0.561,0.281 0,0" /></g><g
           transform="translate(203.3755,201.8597)"
           id="g132"><path
             id="path134"
             style="fill:#ffffff;fill-opacity:1;fill-rule:nonzero;stroke:none"
             d="m 0,0 c 0,0 4.489,-0.842 2.946,-8.558 -1.543,-7.716 -1.964,-6.733 -1.964,-6.733 0,0 2.385,13.327 -1.122,12.626 C -1.403,-2.385 -0.561,0.281 0,0" /></g><g
           transform="translate(121.3667,206.3109)"
           id="g136"><path
             id="path138"
             style="fill:#ffffff;fill-opacity:1;fill-rule:nonzero;stroke:none"
             d="m 0,0 c -9.649,0 -17.5,-7.85 -17.5,-17.5 0,-9.649 7.851,-17.499 17.5,-17.499 9.649,0 17.499,7.85 17.499,17.499 C 17.499,-7.85 9.649,0 0,0" /></g><g
           transform="translate(160.9083,206.3109)"
           id="g140"><path
             id="path142"
             style="fill:#ffffff;fill-opacity:1;fill-rule:nonzero;stroke:none"
             d="m 0,0 c -9.649,0 -17.5,-7.85 -17.5,-17.5 0,-9.649 7.851,-17.499 17.5,-17.499 9.649,0 17.499,7.85 17.499,17.499 C 17.499,-7.85 9.649,0 0,0" /></g><g
           transform="translate(128.3174,186.9468)"
           id="g144"><path
             id="path146"
             style="fill:#000000;fill-opacity:1;fill-rule:nonzero;stroke:none"
             d="m 0,0 c -1.198,0 -2.169,0.971 -2.169,2.169 0,1.197 0.971,2.168 2.169,2.168 1.198,0 2.169,-0.971 2.169,-2.168 C 2.169,0.971 1.198,0 0,0 m -3.859,-4.038 c -0.563,0 -1.02,0.457 -1.02,1.021 0,0.563 0.457,1.02 1.02,1.02 0.564,0 1.021,-0.457 1.021,-1.02 0,-0.564 -0.457,-1.021 -1.021,-1.021 m 2.576,9.987 c -3.329,0 -6.027,-2.698 -6.027,-6.027 0,-3.328 2.698,-6.027 6.027,-6.027 3.329,0 6.027,2.699 6.027,6.027 0,3.329 -2.698,6.027 -6.027,6.027" /></g><g
           transform="translate(156.098,186.9468)"
           id="g148"><path
             id="path150"
             style="fill:#000000;fill-opacity:1;fill-rule:nonzero;stroke:none"
             d="m 0,0 c -1.198,0 -2.169,0.971 -2.169,2.169 0,1.197 0.971,2.168 2.169,2.168 1.198,0 2.169,-0.971 2.169,-2.168 C 2.169,0.971 1.198,0 0,0 m -3.859,-4.038 c -0.563,0 -1.02,0.457 -1.02,1.021 0,0.563 0.457,1.02 1.02,1.02 0.564,0 1.021,-0.457 1.021,-1.02 0,-0.564 -0.457,-1.021 -1.021,-1.021 m 2.576,9.987 c -3.329,0 -6.027,-2.698 -6.027,-6.027 0,-3.328 2.698,-6.027 6.027,-6.027 3.329,0 6.027,2.699 6.027,6.027 0,3.329 -2.698,6.027 -6.027,6.027" /></g><g
           transform="translate(135.2639,110.1169)"
           id="g152"><path
             id="path154"
             style="fill:#000000;fill-opacity:1;fill-rule:nonzero;stroke:none"
             d="M 0,0 C 2.302,-5.51 2.264,-12.08 -0.055,-25.345 H 14.482 C 12.163,-12.08 12.125,-5.51 14.427,0 c 2.156,5.161 5.904,8.301 8.942,10.118 -1.506,1.851 -5.794,4.806 -5.794,4.806 L 7.214,14.67 -3.148,14.924 c 0,0 -4.288,-2.955 -5.794,-4.806 C -5.904,8.301 -2.157,5.161 0,0" /></g><g
           transform="translate(9.9736,68.2743)"
           id="g156"><path
             id="path158"
             style="fill:#000000;fill-opacity:1;fill-rule:nonzero;stroke:none"
             d="m 0,0 c -1.534,0 -2.691,-1.7 -2.691,-3.953 v -6.95 c 0,-1.476 0.231,-3.952 1.777,-3.952 0.458,0 1.361,0.039 2.013,0.086 l 0.107,0.008 0.666,0.197 c 0.742,0.217 1.409,0.651 1.984,1.289 0.549,0.608 0.986,1.445 1.299,2.487 0.302,1.01 0.448,2.248 0.448,3.788 0,2.472 -0.497,4.212 -1.517,5.32 C 3.056,-0.564 1.682,0 0,0 m -8.084,-40.201 c -1,0 -1.814,0.876 -1.814,1.953 V 5.281 c 0,1.077 0.814,1.953 1.814,1.953 h 5.542 c 1.534,0 4.027,-0.082 5.557,-0.183 0.005,0 0.894,-0.069 2.34,-0.518 1.437,-0.447 2.688,-1.199 3.717,-2.236 1.033,-1.042 1.851,-2.485 2.43,-4.289 0.598,-1.857 0.901,-4.227 0.901,-7.045 0,-4.829 -0.962,-8.611 -2.858,-11.241 -1.849,-2.565 -4.816,-3.811 -9.071,-3.811 -1.745,0 -3.165,-1.773 -3.165,-3.953 v -12.206 c 0,-1.077 -0.814,-1.953 -1.814,-1.953 z" /></g><g
           transform="translate(38.5122,68.2743)"
           id="g160"><path
             id="path162"
             style="fill:#000000;fill-opacity:1;fill-rule:nonzero;stroke:none"
             d="m 0,0 c -1.534,0 -2.691,-1.7 -2.691,-3.953 v -5.742 c 0,-1.803 0.297,-3.952 1.71,-3.952 0.403,0 1.34,0.037 2.082,0.084 l 0.107,0.006 0.69,0.197 c 0.748,0.208 1.431,0.617 2.025,1.214 0.579,0.577 1.035,1.339 1.354,2.262 0.31,0.894 0.462,2.011 0.462,3.415 0,2.16 -0.543,3.796 -1.614,4.864 C 3.056,-0.54 1.668,0 0,0 m 8.501,-40.201 c -1.099,0 -2.345,0.983 -2.668,2.103 l -3.921,13.596 c -0.24,0.832 -1.143,3.549 -2.69,3.549 -1.775,0 -1.913,-3.026 -1.913,-3.953 v -13.342 c 0,-1.077 -0.814,-1.953 -1.814,-1.953 h -3.579 c -1,0 -1.814,0.876 -1.814,1.953 V 5.281 c 0,1.077 0.814,1.953 1.814,1.953 h 5.542 c 1.528,0 4.021,-0.084 5.556,-0.186 0.004,0 0.844,-0.067 2.313,-0.516 1.459,-0.448 2.733,-1.201 3.785,-2.241 1.06,-1.049 1.901,-2.451 2.5,-4.165 0.615,-1.76 0.927,-3.955 0.927,-6.524 0,-3.214 -0.409,-5.861 -1.214,-7.866 -0.783,-1.943 -1.99,-3.517 -3.587,-4.678 l -0.582,-0.423 6.101,-19.333 c 0.142,-0.45 0.111,-0.863 -0.085,-1.131 -0.226,-0.308 -0.609,-0.372 -0.891,-0.372 z" /></g><g
           transform="translate(68.624,71.578)"
           id="g164"><path
             id="path166"
             style="fill:#000000;fill-opacity:1;fill-rule:nonzero;stroke:none"
             d="m 0,0 c -0.951,0 -1.788,-0.218 -2.488,-0.649 -0.588,-0.364 -1.288,-1.093 -1.288,-2.503 v -16.337 c 0,-1.226 0.128,-2.824 0.292,-3.637 l 0.088,-0.438 0.926,-0.544 c 0.699,-0.408 1.529,-0.614 2.47,-0.614 0.95,0 1.774,0.21 2.45,0.623 0.573,0.35 1.257,1.073 1.257,2.529 v 16.337 c 0,1.219 -0.122,2.796 -0.278,3.59 L 3.347,-1.224 2.468,-0.66 C 1.792,-0.222 0.96,0 0,0 m 0,-29.077 c -7.389,0 -10.981,2.555 -10.981,7.808 v 15.786 c 0,1.074 0.182,2.878 0.398,3.94 0.005,0.026 0.593,2.773 2.338,3.941 1.943,1.299 4.718,1.958 8.245,1.958 3.874,0 6.739,-0.652 8.518,-1.938 1.704,-1.231 2.532,-3.135 2.532,-5.82 v -15.786 c 0,-1.077 -0.175,-2.886 -0.383,-3.95 -0.005,-0.026 -0.57,-2.791 -2.241,-3.969 -1.848,-1.308 -4.683,-1.97 -8.426,-1.97" /></g><g
           transform="translate(96.7598,68.2743)"
           id="g168"><path
             id="path170"
             style="fill:#000000;fill-opacity:1;fill-rule:nonzero;stroke:none"
             d="m 0,0 c -1.534,0 -2.691,-1.7 -2.691,-3.953 v -6.95 c 0,-1.476 0.231,-3.952 1.777,-3.952 0.458,0 1.361,0.039 2.013,0.086 l 0.107,0.008 0.666,0.197 c 0.742,0.217 1.409,0.651 1.984,1.289 0.549,0.608 0.986,1.445 1.299,2.487 0.302,1.011 0.448,2.249 0.448,3.788 0,2.472 -0.496,4.213 -1.517,5.321 C 3.056,-0.564 1.682,0 0,0 m -8.084,-40.201 c -1,0 -1.814,0.876 -1.814,1.953 V 5.281 c 0,1.077 0.814,1.953 1.814,1.953 h 5.542 c 1.534,0 4.027,-0.082 5.558,-0.183 0.004,0 0.893,-0.069 2.339,-0.518 1.437,-0.447 2.688,-1.199 3.717,-2.236 1.033,-1.042 1.851,-2.485 2.43,-4.289 0.598,-1.857 0.901,-4.227 0.901,-7.045 0,-4.829 -0.962,-8.611 -2.858,-11.241 -1.849,-2.565 -4.816,-3.811 -9.071,-3.811 -1.745,0 -3.165,-1.773 -3.165,-3.953 v -12.206 c 0,-1.077 -0.814,-1.953 -1.814,-1.953 z" /></g><g
           transform="translate(125.2964,68.2743)"
           id="g172"><path
             id="path174"
             style="fill:#000000;fill-opacity:1;fill-rule:nonzero;stroke:none"
             d="m 0,0 c -1.534,0 -2.691,-1.7 -2.691,-3.953 v -5.742 c 0,-1.803 0.297,-3.952 1.711,-3.952 0.403,0 1.339,0.037 2.081,0.084 l 0.107,0.006 0.69,0.197 c 0.748,0.208 1.43,0.617 2.026,1.214 0.579,0.577 1.035,1.339 1.353,2.262 0.311,0.893 0.462,2.01 0.462,3.415 0,2.159 -0.543,3.796 -1.614,4.864 C 3.056,-0.54 1.668,0 0,0 m 8.501,-40.201 c -1.098,0 -2.345,0.983 -2.668,2.104 l -3.921,13.595 c -0.24,0.832 -1.143,3.549 -2.689,3.549 -1.776,0 -1.914,-3.026 -1.914,-3.953 v -13.342 c 0,-1.077 -0.814,-1.953 -1.814,-1.953 h -3.578 c -1.001,0 -1.815,0.876 -1.815,1.953 V 5.281 c 0,1.077 0.814,1.953 1.815,1.953 h 5.541 c 1.528,0 4.021,-0.084 5.556,-0.186 0.004,0 0.844,-0.067 2.313,-0.516 1.459,-0.448 2.734,-1.201 3.785,-2.241 1.061,-1.049 1.902,-2.451 2.5,-4.165 0.616,-1.76 0.927,-3.956 0.927,-6.524 0,-3.215 -0.408,-5.862 -1.214,-7.866 -0.783,-1.943 -1.989,-3.517 -3.587,-4.678 l -0.582,-0.423 6.101,-19.333 c 0.142,-0.451 0.111,-0.863 -0.085,-1.131 -0.225,-0.308 -0.609,-0.372 -0.891,-0.372 z" /></g><g
           transform="translate(147.2202,28.0741)"
           id="g176"><path
             id="path178"
             style="fill:#000000;fill-opacity:1;fill-rule:nonzero;stroke:none"
             d="m 0,0 c -1,0 -1.813,0.876 -1.813,1.952 v 43.529 c 0,1.078 0.813,1.954 1.813,1.954 h 15.967 c 1,0 1.813,-0.876 1.813,-1.954 v -3.327 c 0,-1.077 -0.813,-1.953 -1.813,-1.953 h -6.76 c -2.103,0 -3.813,-1.774 -3.813,-3.953 v -4.606 c 0,-2.18 1.71,-3.954 3.813,-3.954 h 5.202 c 1.001,0 1.815,-0.876 1.815,-1.953 v -3.327 c 0,-1.076 -0.814,-1.952 -1.815,-1.952 H 9.207 c -2.103,0 -3.813,-1.773 -3.813,-3.953 v -5.316 c 0,-2.18 1.71,-3.954 3.813,-3.954 h 6.76 c 1,0 1.813,-0.876 1.813,-1.953 V 1.952 C 17.78,0.876 16.967,0 15.967,0 Z" /></g><g
           transform="translate(197.1157,28.0732)"
           id="g180"><path
             id="path182"
             style="fill:#000000;fill-opacity:1;fill-rule:nonzero;stroke:none"
             d="m 0,0 c -1.001,0 -1.815,0.876 -1.815,1.953 v 17.178 c 0,3.115 0,3.953 -1.135,3.953 -0.837,0 -1.003,-0.4 -1.914,-3.547 l -0.585,-2.02 C -5.903,15.954 -6.665,13.44 -7.147,11.912 L -7.195,11.76 C -7.548,10.644 -8.831,9.66 -9.94,9.66 h -0.503 c -1.107,0 -2.381,0.983 -2.726,2.104 l -0.22,0.706 c -0.474,1.539 -1.239,4.066 -1.694,5.615 l -0.493,1.674 c -0.927,3.141 -1.147,3.538 -1.961,3.538 -1.169,0 -1.169,-1.076 -1.169,-3.953 V 1.953 C -18.706,0.876 -19.521,0 -20.521,0 h -3.577 c -1.001,0 -1.814,0.876 -1.814,1.953 v 43.529 c 0,1.077 0.813,1.953 1.814,1.953 h 2.968 c 1.123,0 2.455,-0.982 2.85,-2.101 l 2.715,-7.675 c 0.549,-1.56 1.392,-4.046 1.877,-5.539 l 1.367,-4.212 c 1.08,-3.327 1.355,-3.486 2.06,-3.486 0.707,0 0.982,0.159 2.062,3.487 l 1.434,4.424 c 0.499,1.535 1.342,4.02 1.879,5.537 l 2.643,7.463 c 0.396,1.12 1.729,2.102 2.851,2.102 h 2.969 c 1.001,0 1.815,-0.876 1.815,-1.953 V 1.953 C 5.392,0.876 4.578,0 3.577,0 Z" /></g><g
           transform="translate(211.6694,28.0741)"
           id="g184"><path
             id="path186"
             style="fill:#000000;fill-opacity:1;fill-rule:nonzero;stroke:none"
             d="m 0,0 c -1.001,0 -1.814,0.876 -1.814,1.952 v 43.529 c 0,1.078 0.813,1.954 1.814,1.954 h 3.576 c 1.001,0 1.815,-0.876 1.815,-1.954 V 1.952 C 5.391,0.876 4.577,0 3.576,0 Z" /></g><g
           transform="translate(235.4438,27.6483)"
           id="g188"><path
             id="path190"
             style="fill:#000000;fill-opacity:1;fill-rule:nonzero;stroke:none"
             d="m 0,0 c -7.39,0 -10.982,3.762 -10.982,11.5 v 34.335 c 0,1.078 0.813,1.954 1.814,1.954 h 3.577 c 1,0 1.814,-0.876 1.814,-1.954 V 14.239 c 0,-1.663 0.127,-3.915 0.282,-5.022 l 0.054,-0.383 0.84,-0.696 C -1.88,7.537 -1.004,7.232 0,7.232 c 1.01,0 1.879,0.31 2.583,0.919 0.745,0.645 1.123,1.7 1.123,3.136 v 34.548 c 0,1.078 0.815,1.954 1.815,1.954 h 3.712 c 1,0 1.814,-0.876 1.814,-1.954 V 14.452 c 0,-1.591 -0.175,-4.166 -0.391,-5.739 C 10.497,7.556 9.761,4.229 8.295,2.76 6.469,0.929 3.678,0 0,0" /></g><g
           transform="translate(279.4868,28.0732)"
           id="g192"><path
             id="path194"
             style="fill:#000000;fill-opacity:1;fill-rule:nonzero;stroke:none"
             d="m 0,0 c -1.001,0 -1.814,0.876 -1.814,1.953 v 17.178 c 0,3.115 0,3.953 -1.135,3.953 -0.837,0 -1.003,-0.4 -1.914,-3.547 l -0.585,-2.02 C -5.902,15.954 -6.664,13.439 -7.146,11.912 L -7.194,11.76 C -7.547,10.644 -8.83,9.66 -9.939,9.66 h -0.503 c -1.107,0 -2.381,0.984 -2.728,2.104 l -0.218,0.705 c -0.474,1.54 -1.239,4.068 -1.695,5.616 l -0.492,1.673 c -0.927,3.142 -1.147,3.539 -1.961,3.539 -1.169,0 -1.169,-1.076 -1.169,-3.953 V 1.953 C -18.705,0.876 -19.52,0 -20.521,0 h -3.576 c -1.001,0 -1.814,0.876 -1.814,1.953 v 43.529 c 0,1.077 0.813,1.953 1.814,1.953 h 2.969 c 1.122,0 2.453,-0.982 2.849,-2.102 l 2.715,-7.674 c 0.549,-1.56 1.392,-4.046 1.876,-5.539 l 1.368,-4.212 c 1.08,-3.327 1.355,-3.486 2.06,-3.486 0.707,0 0.982,0.159 2.062,3.487 l 1.434,4.424 c 0.499,1.536 1.342,4.02 1.879,5.537 l 2.643,7.463 c 0.396,1.12 1.729,2.102 2.851,2.102 h 2.969 c 1.001,0 1.815,-0.876 1.815,-1.953 V 1.953 C 5.393,0.876 4.579,0 3.578,0 Z" /></g><g
           transform="translate(60.312,28.2851)"
           id="g196"><path
             id="path198"
             style="fill:#16a7ff;fill-opacity:1;fill-rule:nonzero;stroke:none"
             d="m 0,0 c -0.614,0 -1.113,0.523 -1.113,1.166 v 3.446 c 0,0.643 0.499,1.165 1.113,1.165 h 16.693 c 0.613,0 1.112,-0.522 1.112,-1.165 V 1.166 C 17.805,0.523 17.306,0 16.693,0 Z" /></g><g
           transform="translate(2.409,9.3388)"
           id="g200"><path
             id="path202"
             style="fill:#000000;fill-opacity:1;fill-rule:nonzero;stroke:none"
             d="m 0,0 c 0,-0.991 0.19,-1.781 0.57,-2.369 0.38,-0.589 0.983,-0.883 1.809,-0.883 0.509,0 0.94,0.109 1.294,0.327 0.354,0.219 0.643,0.529 0.867,0.932 v 4.68 C 4.316,3.083 4.025,3.392 3.668,3.614 3.311,3.835 2.888,3.946 2.399,3.946 1.58,3.946 0.975,3.6 0.585,2.91 0.195,2.219 0,1.319 0,0.208 Z m -2.409,0.208 c 0,1.712 0.367,3.092 1.1,4.139 0.734,1.048 1.765,1.572 3.093,1.572 0.582,0 1.103,-0.118 1.562,-0.352 C 3.805,5.332 4.203,4.997 4.54,4.56 v 5.899 H 6.95 V -5.006 H 4.997 L 4.709,-3.648 C 4.365,-4.157 3.949,-4.545 3.46,-4.813 2.971,-5.081 2.406,-5.215 1.765,-5.215 c -1.316,0 -2.34,0.48 -3.074,1.438 -0.733,0.958 -1.1,2.217 -1.1,3.777 z" /></g><path
           id="path204"
           style="fill:#000000;fill-opacity:1;fill-rule:nonzero;stroke:none"
           d="m 26.696,4.332 h -2.409 v 10.727 h 2.409 z m 0,13.354 h -2.409 v 2.112 h 2.409 z" /><g
           transform="translate(43.5966,9.3388)"
           id="g206"><path
             id="path208"
             style="fill:#000000;fill-opacity:1;fill-rule:nonzero;stroke:none"
             d="m 0,0 c 0,-0.991 0.192,-1.781 0.575,-2.369 0.383,-0.589 0.988,-0.883 1.814,-0.883 0.516,0 0.95,0.108 1.304,0.322 0.353,0.215 0.639,0.524 0.857,0.927 v 4.7 C 4.326,3.086 4.037,3.392 3.683,3.614 3.329,3.835 2.905,3.946 2.409,3.946 1.583,3.946 0.975,3.6 0.585,2.91 0.195,2.219 0,1.319 0,0.208 Z m -2.399,0.208 c 0,1.712 0.367,3.092 1.1,4.139 0.734,1.048 1.765,1.572 3.093,1.572 0.641,0 1.205,-0.138 1.691,-0.412 C 3.97,5.233 4.382,4.838 4.719,4.322 L 4.957,5.72 H 6.959 V -5.006 c 0,-1.382 -0.426,-2.449 -1.278,-3.203 -0.853,-0.753 -2.062,-1.13 -3.629,-1.13 -0.522,0 -1.085,0.075 -1.69,0.223 -0.605,0.149 -1.152,0.346 -1.641,0.59 l 0.387,1.894 c 0.41,-0.205 0.867,-0.365 1.373,-0.481 0.505,-0.116 1.023,-0.174 1.551,-0.174 0.873,0 1.511,0.187 1.914,0.561 0.403,0.373 0.604,0.946 0.604,1.72 v 1.1 C 4.213,-4.336 3.815,-4.661 3.356,-4.883 2.896,-5.104 2.369,-5.215 1.775,-5.215 c -1.316,0 -2.34,0.48 -3.074,1.438 -0.733,0.958 -1.1,2.217 -1.1,3.777 z" /></g><path
           id="path210"
           style="fill:#000000;fill-opacity:1;fill-rule:nonzero;stroke:none"
           d="m 67.824,4.332 h -2.409 v 10.727 h 2.409 z m 0,13.354 h -2.409 v 2.112 h 2.409 z" /><g
           transform="translate(85.7854,17.6663)"
           id="g212"><path
             id="path214"
             style="fill:#000000;fill-opacity:1;fill-rule:nonzero;stroke:none"
             d="M 0,0 V -2.607 H 1.923 V -4.392 H 0 v -5.928 c 0,-0.443 0.096,-0.759 0.288,-0.947 0.191,-0.188 0.446,-0.283 0.763,-0.283 0.132,0 0.261,0.012 0.386,0.035 0.126,0.023 0.245,0.055 0.357,0.094 l 0.258,-1.764 c -0.205,-0.113 -0.448,-0.2 -0.729,-0.263 -0.28,-0.063 -0.573,-0.094 -0.877,-0.094 -0.885,0 -1.581,0.259 -2.087,0.778 -0.505,0.519 -0.758,1.333 -0.758,2.444 v 5.928 h -1.636 v 1.785 h 1.636 V 0 Z" /></g><g
           transform="translate(105.3535,6.0573)"
           id="g216"><path
             id="path218"
             style="fill:#000000;fill-opacity:1;fill-rule:nonzero;stroke:none"
             d="M 0,0 C 0.601,0 1.145,0.152 1.631,0.456 2.117,0.76 2.439,1.107 2.597,1.497 V 3.083 H 0.684 c -0.701,0 -1.249,-0.173 -1.646,-0.52 -0.396,-0.347 -0.594,-0.755 -0.594,-1.225 0,-0.409 0.133,-0.735 0.401,-0.976 C -0.887,0.121 -0.502,0 0,0 M 2.944,-1.725 C 2.858,-1.454 2.787,-1.19 2.731,-0.932 2.675,-0.674 2.637,-0.416 2.617,-0.159 2.293,-0.661 1.86,-1.082 1.319,-1.423 c -0.542,-0.34 -1.147,-0.51 -1.815,-0.51 -1.117,0 -1.974,0.287 -2.572,0.862 -0.598,0.575 -0.897,1.365 -0.897,2.37 0,1.037 0.409,1.845 1.229,2.424 0.819,0.578 1.973,0.867 3.46,0.867 H 2.597 V 5.532 C 2.597,6.094 2.434,6.533 2.107,6.85 1.78,7.168 1.305,7.326 0.684,7.326 0.135,7.326 -0.301,7.196 -0.625,6.935 -0.948,6.674 -1.11,6.335 -1.11,5.919 L -3.43,5.909 -3.44,5.968 C -3.486,6.814 -3.108,7.564 -2.305,8.219 -1.502,8.873 -0.456,9.2 0.833,9.2 2.082,9.2 3.09,8.883 3.856,8.248 4.623,7.614 5.006,6.702 5.006,5.512 V 0.744 c 0,-0.443 0.03,-0.868 0.09,-1.274 0.059,-0.407 0.155,-0.805 0.287,-1.195 z" /></g><path
           id="path220"
           style="fill:#000000;fill-opacity:1;fill-rule:nonzero;stroke:none"
           d="m 127.628,4.332 h -2.409 v 15.465 h 2.409 z" /><g
           transform="translate(163.2638,6.0573)"
           id="g222"><path
             id="path224"
             style="fill:#000000;fill-opacity:1;fill-rule:nonzero;stroke:none"
             d="M 0,0 C 0.601,0 1.145,0.152 1.631,0.456 2.117,0.76 2.439,1.107 2.597,1.497 V 3.083 H 0.684 c -0.701,0 -1.249,-0.173 -1.646,-0.52 -0.396,-0.347 -0.594,-0.755 -0.594,-1.225 0,-0.409 0.133,-0.735 0.401,-0.976 C -0.887,0.121 -0.502,0 0,0 M 2.944,-1.725 C 2.858,-1.454 2.787,-1.19 2.731,-0.932 2.675,-0.674 2.637,-0.416 2.617,-0.159 2.293,-0.661 1.86,-1.082 1.319,-1.423 c -0.542,-0.34 -1.147,-0.51 -1.815,-0.51 -1.117,0 -1.974,0.287 -2.572,0.862 -0.598,0.575 -0.897,1.365 -0.897,2.37 0,1.037 0.409,1.845 1.229,2.424 0.819,0.578 1.973,0.867 3.46,0.867 H 2.597 V 5.532 C 2.597,6.094 2.434,6.533 2.107,6.85 1.78,7.168 1.305,7.326 0.684,7.326 0.135,7.326 -0.301,7.196 -0.625,6.935 -0.948,6.674 -1.11,6.335 -1.11,5.919 L -3.43,5.909 -3.44,5.968 C -3.486,6.814 -3.108,7.564 -2.305,8.219 -1.502,8.873 -0.456,9.2 0.833,9.2 2.082,9.2 3.09,8.883 3.856,8.248 4.623,7.614 5.006,6.702 5.006,5.512 V 0.744 c 0,-0.443 0.03,-0.868 0.09,-1.274 0.059,-0.407 0.155,-0.805 0.287,-1.195 z" /></g><g
           transform="translate(184.9923,9.3388)"
           id="g226"><path
             id="path228"
             style="fill:#000000;fill-opacity:1;fill-rule:nonzero;stroke:none"
             d="m 0,0 c 0,-0.991 0.192,-1.781 0.575,-2.369 0.383,-0.589 0.988,-0.883 1.814,-0.883 0.516,0 0.95,0.108 1.304,0.322 0.353,0.215 0.639,0.524 0.857,0.927 v 4.7 C 4.326,3.086 4.037,3.392 3.683,3.614 3.329,3.835 2.905,3.946 2.409,3.946 1.583,3.946 0.975,3.6 0.585,2.91 0.195,2.219 0,1.319 0,0.208 Z m -2.399,0.208 c 0,1.712 0.367,3.092 1.1,4.139 0.734,1.048 1.765,1.572 3.093,1.572 0.641,0 1.205,-0.138 1.691,-0.412 C 3.97,5.233 4.382,4.838 4.719,4.322 L 4.957,5.72 H 6.959 V -5.006 c 0,-1.382 -0.426,-2.449 -1.278,-3.203 -0.853,-0.753 -2.062,-1.13 -3.629,-1.13 -0.522,0 -1.085,0.075 -1.69,0.223 -0.605,0.149 -1.152,0.346 -1.641,0.59 l 0.387,1.894 c 0.41,-0.205 0.867,-0.365 1.373,-0.481 0.505,-0.116 1.023,-0.174 1.551,-0.174 0.873,0 1.511,0.187 1.914,0.561 0.403,0.373 0.604,0.946 0.604,1.72 v 1.1 C 4.213,-4.336 3.815,-4.661 3.356,-4.883 2.896,-5.104 2.369,-5.215 1.775,-5.215 c -1.316,0 -2.34,0.48 -3.074,1.438 -0.733,0.958 -1.1,2.217 -1.1,3.777 z" /></g><g
           transform="translate(210.944,13.3241)"
           id="g230"><path
             id="path232"
             style="fill:#000000;fill-opacity:1;fill-rule:nonzero;stroke:none"
             d="m 0,0 c -0.628,0 -1.13,-0.226 -1.507,-0.679 -0.377,-0.453 -0.611,-1.043 -0.704,-1.77 l 0.02,-0.049 h 4.194 v 0.188 c 0,0.687 -0.161,1.244 -0.481,1.671 C 1.201,-0.213 0.694,0 0,0 m 0.258,-9.2 c -1.567,0 -2.791,0.494 -3.673,1.482 -0.883,0.988 -1.324,2.269 -1.324,3.842 v 0.396 c 0,1.573 0.441,2.87 1.324,3.891 0.882,1.022 2.02,1.529 3.415,1.522 1.441,0 2.531,-0.444 3.272,-1.333 0.74,-0.889 1.11,-2.077 1.11,-3.564 V -4.263 H -2.25 l -0.02,-0.049 c 0.026,-0.879 0.258,-1.593 0.694,-2.142 0.436,-0.548 1.094,-0.823 1.973,-0.823 0.654,0 1.221,0.08 1.7,0.238 0.479,0.159 0.923,0.387 1.333,0.684 L 4.213,-7.931 C 3.804,-8.288 3.262,-8.589 2.587,-8.833 1.913,-9.078 1.137,-9.2 0.258,-9.2" /></g><g
           transform="translate(231.6423,15.059)"
           id="g234"><path
             id="path236"
             style="fill:#000000;fill-opacity:1;fill-rule:nonzero;stroke:none"
             d="m 0,0 0.139,-1.547 c 0.35,0.549 0.791,0.977 1.323,1.284 0.532,0.308 1.132,0.461 1.8,0.461 1.117,0 1.987,-0.343 2.612,-1.031 0.624,-0.687 0.937,-1.761 0.937,-3.222 v -6.672 H 4.402 v 6.652 C 4.402,-3.242 4.24,-2.65 3.916,-2.3 3.592,-1.95 3.103,-1.775 2.449,-1.775 1.933,-1.775 1.487,-1.872 1.11,-2.067 0.734,-2.262 0.433,-2.531 0.208,-2.875 v -7.852 h -2.409 l 0,10.727 z" /></g><g
           transform="translate(257.5155,6.0474)"
           id="g238"><path
             id="path240"
             style="fill:#000000;fill-opacity:1;fill-rule:nonzero;stroke:none"
             d="m 0,0 c 0.549,0 1.013,0.172 1.393,0.516 0.38,0.343 0.57,0.779 0.57,1.308 H 4.144 L 4.164,1.765 C 4.19,0.76 3.792,-0.106 2.969,-0.833 2.146,-1.56 1.157,-1.923 0,-1.923 c -1.547,0 -2.74,0.51 -3.579,1.531 -0.839,1.022 -1.259,2.309 -1.259,3.862 v 0.347 c 0,1.546 0.42,2.832 1.259,3.856 C -2.74,8.698 -1.55,9.21 -0.01,9.21 1.239,9.21 2.254,8.835 3.034,8.085 3.813,7.335 4.19,6.381 4.164,5.225 L 4.144,5.165 H 1.963 C 1.963,5.753 1.781,6.252 1.418,6.662 1.054,7.072 0.578,7.277 -0.01,7.277 -0.869,7.277 -1.487,6.945 -1.864,6.28 -2.241,5.616 -2.429,4.795 -2.429,3.817 V 3.47 c 0,-0.998 0.187,-1.826 0.56,-2.484 C -1.495,0.329 -0.872,0 0,0" /></g><g
           transform="translate(279.4431,8.6349)"
           id="g242"><path
             id="path244"
             style="fill:#000000;fill-opacity:1;fill-rule:nonzero;stroke:none"
             d="m 0,0 0.238,-1.071 h 0.059 l 2.35,7.495 H 5.284 L 0.843,-5.928 c -0.285,-0.747 -0.684,-1.385 -1.2,-1.914 -0.515,-0.528 -1.246,-0.793 -2.191,-0.793 -0.198,0 -0.411,0.02 -0.639,0.06 -0.228,0.039 -0.448,0.086 -0.66,0.138 l 0.268,1.864 c 0.086,-0.006 0.208,-0.016 0.367,-0.03 0.159,-0.013 0.278,-0.019 0.357,-0.019 0.436,0 0.785,0.148 1.046,0.446 0.261,0.297 0.474,0.641 0.639,1.031 l 0.397,0.971 -3.896,10.598 h 2.627 z" /></g></g></g></g></svg>